<?xml version="1.0" encoding="utf-8"?>
<!-- Generator: Adobe Illustrator 19.0.0, SVG Export Plug-In . SVG Version: 6.00 Build 0)  -->
<svg version="1.1" id="Layer_1" xmlns="http://www.w3.org/2000/svg" xmlns:xlink="http://www.w3.org/1999/xlink" x="0px" y="0px"
	 viewBox="-4 2 30 40" style="enable-background:new -4 2 30 40;" xml:space="preserve">
<style type="text/css">
	.st0{fill:#FFFFFF;}
	.st1{fill:none;stroke:#FFFFFF;stroke-width:0.75;stroke-miterlimit:10;}
	.st2{stroke:#FFFFFF;stroke-width:0.75;stroke-miterlimit:10;}
	.st3{stroke:#000000;stroke-width:0.75;stroke-miterlimit:10;}
</style>
<g id="XMLID_44_">
	<g id="XMLID_45_">
		<g id="XMLID_46_">
			<path id="XMLID_51_" class="st0" d="M25.2,2H-3.2C-3.6,2-4,2.3-4,2.8v36.4c0,0.4,0.4,0.8,0.8,0.8h22.1c0,0,0,0,0,0
				c0.2,0,0.4-0.1,0.6-0.2l6.3-6.2c0.2-0.1,0.2-0.3,0.2-0.5h0V2.8C26,2.3,25.6,2,25.2,2z M19.1,38.7v-5.6h5.8L19.1,38.7z M24.9,32.2
				l-6,0c-0.4,0-0.8,0.3-0.8,0.8l0,5.9l-21,0l0-35.8l27.7,0L24.9,32.2z"/>
			<rect id="XMLID_33_" x="3.3" y="14.1" class="st0" width="1.6" height="1.3"/>
			<rect id="XMLID_32_" x="3.3" y="20.3" class="st0" width="1.6" height="1.3"/>
			<rect id="XMLID_31_" x="3.3" y="26.4" class="st0" width="1.6" height="1.3"/>
		</g>
	</g>
</g>
<path id="XMLID_28_" class="st0" d="M10,8.9H1.6c-0.2,0-0.4-0.2-0.4-0.4V8.3c0-0.2,0.2-0.4,0.4-0.4H10c0.2,0,0.4,0.2,0.4,0.4v0.2
	C10.5,8.7,10.3,8.9,10,8.9z"/>
<path id="XMLID_21_" class="st1" d="M19.2,30.1H1.9c-0.6,0-1.1-0.5-1.1-1.1V13c0-0.6,0.5-1.1,1.1-1.1h17.3c0.6,0,1.1,0.5,1.1,1.1v16
	C20.3,29.6,19.8,30.1,19.2,30.1z"/>
<line id="XMLID_17_" class="st2" x1="1.1" y1="17.7" x2="20.3" y2="17.7"/>
<line id="XMLID_13_" class="st2" x1="1.1" y1="24" x2="20.3" y2="24"/>
<path id="XMLID_30_" class="st3" d="M22,25.3"/>
<path id="XMLID_2_" class="st3" d="M1.2,25.3"/>
</svg>
