<?xml version="1.0" encoding="utf-8"?>
<!-- Generator: Adobe Illustrator 19.0.0, SVG Export Plug-In . SVG Version: 6.00 Build 0)  -->
<svg version="1.1" id="Layer_1" xmlns="http://www.w3.org/2000/svg" xmlns:xlink="http://www.w3.org/1999/xlink" x="0px" y="0px"
	 viewBox="0 0 30 40" style="enable-background:new 0 0 30 40;" xml:space="preserve">
<style type="text/css">
	.st0{fill:#231F20;}
</style>
<g id="XMLID_26_">
	<path id="XMLID_29_" d="M28,0H8.4c-1.1,0-2,0.8-2,2v4.5C2.7,7.6,0,11,0,15s2.7,7.5,6.4,8.5v7.8c0,1.1,0.9,2,2,2h16
		c0.2,0,0.4-0.1,0.5-0.2l4.9-4.9c0.1-0.1,0.2-0.3,0.2-0.5V2C30,0.8,29.1,0,28,0z M8.4,0.9H28c0.3,0,1.1,0.3,1.1,0.6v2.6l-21.8,0
		l0-2.4C7.3,1.4,8.1,0.9,8.4,0.9z M0.9,15.1c0-4.1,3.8-7.9,8-7.9s8,3.8,8,7.9s-3.9,7.8-8,7.8S0.9,19.2,0.9,15.1z M7.3,32v-8.3
		c0.3,0,1.2,0.1,1.5,0.1c2.7,0,5.4-1.5,7-3.3H20c0.4,0,0.6-0.2,0.6-0.6s-0.3-0.5-0.7-0.5l-3.4,0c0.6-1.1,1.1-2.6,1.2-3.9l2.2,0
		c0.4,0,0.7-0.1,0.7-0.5c0-0.4-0.3-0.4-0.7-0.4l-2.2,0c-0.1-1.3-0.7-3.1-1.3-4.2l3.5,0c0.4,0,0.7-0.2,0.7-0.6c0-0.4-0.3-0.5-0.7-0.5
		h-4.3C14,7.4,11.6,6.2,8.8,6.2c-0.3,0-1.2,0.1-1.5,0.1V4.9l21.8,0l0,22.2l-3.4,0c-1.1,0-2,0.9-2,2l0,3.5H8.4
		C8.1,32.6,7.3,32.3,7.3,32z M24.5,32.5V29c0-0.3,0.5-1.2,1.3-1.2l3.3,0L24.5,32.5z"/>
	<path id="XMLID_27_" d="M7.2,19.7l-3.3-3.3c-0.1-0.1-0.1-0.3,0-0.3l0.4-0.4c0.1-0.1,0.3-0.1,0.3,0l1.9,1.9c0.3,0.3,0.9,0.3,1.3,0
		l6-6c0.1-0.1,0.3-0.1,0.4,0l0.4,0.4c0.1,0.1,0.1,0.3,0,0.4L7.2,19.7z"/>
</g>
<g id="XMLID_22_">
	<g id="XMLID_23_">
		<g id="XMLID_24_">
			<path id="XMLID_5_" class="st0" d="M23,9.4h3.4c0.3,0,0.5,0.2,0.5,0.4V10c0,0.2-0.2,0.4-0.5,0.4H23c-0.3,0-0.5-0.2-0.5-0.4V9.8
				C22.5,9.6,22.7,9.4,23,9.4z"/>
		</g>
	</g>
</g>
<g id="XMLID_18_">
	<g id="XMLID_19_">
		<g id="XMLID_20_">
			<path id="XMLID_4_" class="st0" d="M23,14.7h3.4c0.3,0,0.5,0.2,0.5,0.4v0.2c0,0.2-0.2,0.4-0.5,0.4H23c-0.3,0-0.5-0.2-0.5-0.4V15
				C22.5,14.8,22.7,14.7,23,14.7z"/>
		</g>
	</g>
</g>
<g id="XMLID_14_">
	<g id="XMLID_15_">
		<g id="XMLID_16_">
			<path id="XMLID_3_" class="st0" d="M22.8,19.6h3.4c0.3,0,0.5,0.2,0.5,0.4v0.2c0,0.2-0.2,0.4-0.5,0.4h-3.4c-0.3,0-0.5-0.2-0.5-0.4
				V20C22.3,19.8,22.5,19.6,22.8,19.6z"/>
		</g>
	</g>
</g>
</svg>
