<?xml version="1.0" encoding="utf-8"?>
<!-- Generator: Adobe Illustrator 19.0.0, SVG Export Plug-In . SVG Version: 6.00 Build 0)  -->
<svg version="1.1" id="Layer_1" xmlns="http://www.w3.org/2000/svg" xmlns:xlink="http://www.w3.org/1999/xlink" x="0px" y="0px"
	 viewBox="-4 2 30 40" style="enable-background:new -4 2 30 40;" xml:space="preserve">
<style type="text/css">
	.st0{fill:#FFFFFF;}
</style>
<g id="XMLID_26_">
	<path id="XMLID_29_" class="st0" d="M24,2H4.4c-1.1,0-2,0.8-2,2v4.5C-1.3,9.6-4,13-4,17s2.7,7.5,6.4,8.5v7.8c0,1.1,0.9,2,2,2h16
		c0.2,0,0.4-0.1,0.5-0.2l4.9-4.9c0.1-0.1,0.2-0.3,0.2-0.5V4C26,2.8,25.1,2,24,2z M4.4,2.9H24c0.3,0,1.1,0.3,1.1,0.6v2.6H3.3V3.7
		C3.3,3.4,4.1,2.9,4.4,2.9z M-3.1,17.1c0-4.1,3.8-7.9,8-7.9s8,3.8,8,7.9s-3.9,7.8-8,7.8S-3.1,21.2-3.1,17.1z M3.3,34v-8.3
		c0.3,0,1.2,0.1,1.5,0.1c2.7,0,5.4-1.5,7-3.3H16c0.4,0,0.6-0.2,0.6-0.6s-0.3-0.5-0.7-0.5h-3.4c0.6-1.1,1.1-2.6,1.2-3.9h2.2
		c0.4,0,0.7-0.1,0.7-0.5s-0.3-0.4-0.7-0.4h-2.2c-0.1-1.3-0.7-3.1-1.3-4.2h3.5c0.4,0,0.7-0.2,0.7-0.6c0-0.4-0.3-0.5-0.7-0.5h-4.3
		c-1.6-1.9-4-3.1-6.8-3.1c-0.3,0-1.2,0.1-1.5,0.1V6.9h21.8v22.2h-3.4c-1.1,0-2,0.9-2,2v3.5H4.4C4.1,34.6,3.3,34.3,3.3,34z
		 M20.5,34.5V31c0-0.3,0.5-1.2,1.3-1.2h3.3L20.5,34.5z"/>
	<path id="XMLID_27_" class="st0" d="M3.2,21.7l-3.3-3.3c-0.1-0.1-0.1-0.3,0-0.3l0.4-0.4c0.1-0.1,0.3-0.1,0.3,0l1.9,1.9
		c0.3,0.3,0.9,0.3,1.3,0l6-6c0.1-0.1,0.3-0.1,0.4,0l0.4,0.4c0.1,0.1,0.1,0.3,0,0.4L3.2,21.7z"/>
</g>
<g id="XMLID_22_">
	<g id="XMLID_23_">
		<g id="XMLID_24_">
			<path id="XMLID_5_" class="st0" d="M19,11.4h3.4c0.3,0,0.5,0.2,0.5,0.4V12c0,0.2-0.2,0.4-0.5,0.4H19c-0.3,0-0.5-0.2-0.5-0.4v-0.2
				C18.5,11.6,18.7,11.4,19,11.4z"/>
		</g>
	</g>
</g>
<g id="XMLID_18_">
	<g id="XMLID_19_">
		<g id="XMLID_20_">
			<path id="XMLID_4_" class="st0" d="M19,16.7h3.4c0.3,0,0.5,0.2,0.5,0.4v0.2c0,0.2-0.2,0.4-0.5,0.4H19c-0.3,0-0.5-0.2-0.5-0.4V17
				C18.5,16.8,18.7,16.7,19,16.7z"/>
		</g>
	</g>
</g>
<g id="XMLID_14_">
	<g id="XMLID_15_">
		<g id="XMLID_16_">
			<path id="XMLID_3_" class="st0" d="M18.8,21.6h3.4c0.3,0,0.5,0.2,0.5,0.4v0.2c0,0.2-0.2,0.4-0.5,0.4h-3.4c-0.3,0-0.5-0.2-0.5-0.4
				V22C18.3,21.8,18.5,21.6,18.8,21.6z"/>
		</g>
	</g>
</g>
</svg>
