<?xml version="1.0" encoding="utf-8"?>
<!-- Generator: Adobe Illustrator 16.0.0, SVG Export Plug-In . SVG Version: 6.00 Build 0)  -->
<!DOCTYPE svg PUBLIC "-//W3C//DTD SVG 1.1//EN" "http://www.w3.org/Graphics/SVG/1.1/DTD/svg11.dtd">
<svg version="1.1" id="Capa_1" xmlns="http://www.w3.org/2000/svg" xmlns:xlink="http://www.w3.org/1999/xlink" x="0px" y="0px"
	 width="612px" height="679.32px" viewBox="0 0 612 679.32" enable-background="new 0 0 612 679.32" xml:space="preserve">
<g>
	<path d="M569.16,0h-397.8c-22.44,0-40.8,18.36-40.8,40.8v91.8C55.08,155.04,0,224.4,0,306c0,81.601,55.08,153,130.561,173.4v159.12
		c0,22.439,18.36,40.8,40.8,40.8H497.76c4.08,0,8.16-2.04,10.2-4.08l99.96-99.96c2.04-2.04,4.08-6.12,4.08-10.2V40.8
		C609.96,18.36,591.601,0,569.16,0z M171.36,28.56h397.8c6.12,0,12.24,6.12,12.24,12.24v44.88H159.12V40.8
		C159.12,34.68,165.24,28.56,171.36,28.56z M28.56,308.04c0-83.64,67.32-150.96,150.96-150.96s150.96,67.32,150.96,150.96
		S263.16,459,179.52,459S28.56,391.68,28.56,308.04z M159.12,640.561v-153c6.12,0,14.28,2.039,20.4,2.039
		c55.08,0,102-24.479,136.68-61.199h89.76c8.16,0,14.28-6.12,14.28-14.28s-6.12-14.28-14.28-14.28H336.6
		c12.24-22.439,20.4-46.92,22.44-73.439h44.88c8.16,0,14.28-6.12,14.28-14.28s-6.12-14.28-14.28-14.28h-44.88
		c-2.04-26.52-10.2-51-22.44-73.439h67.32c8.16,0,14.28-6.12,14.28-14.28c0-8.16-6.12-14.28-14.28-14.28H316.2
		c-32.64-38.76-83.64-65.28-138.72-65.28c-6.12,0-14.28,0-20.4,2.04v-14.28h422.28v438.6H520.2c-22.44,0-40.8,18.36-40.8,40.801
		v59.16H171.36C165.24,652.8,159.12,646.68,159.12,640.561z M512.04,632.4V595.68c0-6.119,6.12-12.239,12.24-12.239H561
		L512.04,632.4z"/>
	<path d="M463.08,220.32h48.96c8.16,0,14.28-6.12,14.28-14.28c0-8.16-6.12-14.28-14.28-14.28h-48.96
		c-8.16,0-14.279,6.12-14.279,14.28C448.801,214.2,454.92,220.32,463.08,220.32z"/>
	<path d="M463.08,322.32h48.96c8.16,0,14.28-6.12,14.28-14.28s-6.12-14.28-14.28-14.28h-48.96c-8.16,0-14.279,6.12-14.279,14.28
		S454.92,322.32,463.08,322.32z"/>
	<path d="M463.08,426.36h48.96c8.16,0,14.28-6.12,14.28-14.28s-6.12-14.28-14.28-14.28h-48.96c-8.16,0-14.279,6.12-14.279,14.28
		S454.92,426.36,463.08,426.36z"/>
	<path d="M510,528.36c8.16,0,14.28-6.12,14.28-14.28S518.16,499.8,510,499.8H373.32c-8.16,0-14.28,6.12-14.28,14.28
		s6.12,14.28,14.28,14.28H510z"/>
	<path d="M291.72,234.6l-18.359-18.36c-4.08-4.08-10.2-8.16-18.36-8.16c-6.12,0-12.24,2.04-18.36,8.16l-93.84,93.84l-26.52-26.52
		c-4.08-4.08-10.2-8.16-18.36-8.16c-6.12,0-12.24,2.04-18.36,8.16L61.2,301.92c-10.2,10.2-10.2,26.521,0,36.721l61.2,61.199
		c4.08,4.08,10.2,8.16,18.36,8.16l0,0c6.12,0,12.24-2.04,18.36-8.16l128.52-128.52C301.92,259.08,301.92,242.76,291.72,234.6z
		 M146.88,375.36L91.8,320.28l12.24-12.24l32.64,32.64c6.12,6.12,14.28,6.12,20.4,0l99.96-99.959l12.24,12.24L146.88,375.36z"/>
</g>
</svg>
