<?xml version="1.0" encoding="utf-8"?>
<!-- Generator: Adobe Illustrator 19.0.0, SVG Export Plug-In . SVG Version: 6.00 Build 0)  -->
<svg version="1.1" id="Layer_1" xmlns="http://www.w3.org/2000/svg" xmlns:xlink="http://www.w3.org/1999/xlink" x="0px" y="0px"
	 viewBox="-405 278.6 30 38.7" style="enable-background:new -405 278.6 30 38.7;" xml:space="preserve">
<style type="text/css">
	.st0{fill:#FFFFFF;}
</style>
<g>
	<g>
		<g>
			<path class="st0" d="M-375.8,278.6h-28.4c-0.4,0-0.8,0.4-0.8,0.8v37.1c0,0.4,0.4,0.8,0.8,0.8h22.1l0,0c0.2,0,0.4-0.1,0.6-0.2
				l6.3-6.3c0.2-0.2,0.2-0.4,0.2-0.6l0,0v-30.8C-375,279-375.4,278.6-375.8,278.6z M-381.3,314.6V311h3.6L-381.3,314.6z
				 M-376.6,309.4h-5.5c-0.4,0-0.8,0.4-0.8,0.8v5.5h-20.5v-35.5h26.8C-376.6,280.2-376.6,309.4-376.6,309.4z"/>
			<rect x="-400.7" y="282.6" class="st0" width="6.3" height="1.6"/>
			<rect x="-400.7" y="285" class="st0" width="10.3" height="1.6"/>
			<path class="st0" d="M-399.9,312.6h14.2V311h-7.5v-7.1h12.2v3.2h1.6v-17.8c0-0.4-0.4-0.8-0.8-0.8h-19.7c-0.4,0-0.8,0.4-0.8,0.8
				v22.5C-400.7,312.2-400.3,312.6-399.9,312.6z M-393.2,290.1h12.2v2.8h-12.2V290.1z M-393.2,294.4h12.2v3.2h-12.2V294.4z
				 M-393.2,299.2h12.2v3.2h-12.2V299.2z M-399.1,290.1h4.3v2.8h-4.3C-399.1,292.9-399.1,290.1-399.1,290.1z M-399.1,294.4h4.3V311
				h-4.3V294.4z"/>
			<rect x="-397.9" y="295.6" class="st0" width="2" height="1.6"/>
			<rect x="-397.9" y="300.3" class="st0" width="2" height="1.6"/>
			<rect x="-397.9" y="305.1" class="st0" width="2" height="1.6"/>
			<rect x="-397.9" y="308.2" class="st0" width="2" height="1.6"/>
		</g>
	</g>
</g>
</svg>
