<?xml version="1.0" encoding="utf-8"?>
<!-- Generator: Adobe Illustrator 19.0.0, SVG Export Plug-In . SVG Version: 6.00 Build 0)  -->
<svg version="1.1" id="Layer_1" xmlns="http://www.w3.org/2000/svg" xmlns:xlink="http://www.w3.org/1999/xlink" x="0px" y="0px"
	 viewBox="0 0 30 40" style="enable-background:new 0 0 30 40;" xml:space="preserve">
<style type="text/css">
	.st0{fill:none;stroke:#000000;stroke-width:0.75;stroke-miterlimit:10;}
</style>
<g id="XMLID_7_">
	<g id="XMLID_11_">
		<g id="XMLID_12_">
			<path id="XMLID_13_" d="M26.3,27.3c-0.2-0.1-0.4-0.1-0.6,0.1l-1.9,2.3l-1-1c-0.2-0.2-0.4-0.3-0.6,0c-0.2,0.2-0.2,0.3,0,0.5
				l1.2,1.2c0.1,0.1,0.2,0.1,0.3,0.1l0,0c0.1,0,0.3-0.1,0.3-0.1l2.2-2.6C26.6,27.5,26.4,27.5,26.3,27.3z"/>
		</g>
	</g>
	<g id="XMLID_8_">
		<g id="XMLID_9_">
			<path id="XMLID_10_" d="M24.3,0H0.7C0.3,0,0,0.3,0,0.7v32.7c0,0.2,0.1,0.5,0.3,0.6c0.2,0.1,0.5,0.1,0.7,0l2.9-1.7L6.2,34
				c0.2,0.2,0.5,0.2,0.7,0l2.9-1.7l2.3,1.7c0.1,0.1,0.3,0.1,0.4,0.1c0.1,0,0.2,0,0.3-0.1l3.3-2c0.3-0.2,0.4-0.3,0.2-0.6
				c-0.2-0.3-0.6-0.1-0.9,0.1l-2.9,1.7l-2.3-1.7c-0.2-0.2-0.5-0.2-0.7,0l-2.9,1.7l-2.3-1.7c-0.2-0.2-0.5-0.2-0.7,0l-2.7,1.6L0.9,1
				l23,0v19.8c0,0.4,0.1,0.5,0.5,0.5c0.4,0,0.5-0.2,0.5-0.6V0.7C25,0.3,24.7,0,24.3,0z"/>
		</g>
	</g>
</g>
<path id="XMLID_6_" d="M5.6,8.6c0,0.3,0.3,0.5,0.6,0.5h12.9c0.3,0,0.6-0.2,0.6-0.5c0-0.3-0.3-0.5-0.6-0.5H6.2
	C5.9,8.1,5.6,8.3,5.6,8.6z"/>
<circle id="XMLID_5_" class="st0" cx="24.1" cy="28.8" r="5.6"/>
<path id="XMLID_4_" d="M5.6,13.1c0,0.3,0.3,0.5,0.6,0.5h12.9c0.3,0,0.6-0.2,0.6-0.5c0-0.3-0.3-0.5-0.6-0.5H6.2
	C5.9,12.6,5.6,12.8,5.6,13.1z"/>
<path id="XMLID_3_" d="M5.6,17.7c0,0.3,0.3,0.5,0.6,0.5h12.9c0.3,0,0.6-0.2,0.6-0.5c0-0.3-0.3-0.5-0.6-0.5H6.2
	C5.9,17.2,5.6,17.4,5.6,17.7z"/>
<path id="XMLID_2_" d="M5.6,22.7c0,0.3,0.3,0.5,0.6,0.5h12.9c0.3,0,0.6-0.2,0.6-0.5c0-0.3-0.3-0.5-0.6-0.5H6.2
	C5.9,22.2,5.6,22.4,5.6,22.7z"/>
</svg>
