<?xml version="1.0" encoding="utf-8"?>
<!-- Generator: Adobe Illustrator 19.0.0, SVG Export Plug-In . SVG Version: 6.00 Build 0)  -->
<svg version="1.1" id="Layer_1" xmlns="http://www.w3.org/2000/svg" xmlns:xlink="http://www.w3.org/1999/xlink" x="0px" y="0px"
	 viewBox="-4 2 30 40" style="enable-background:new -4 2 30 40;" xml:space="preserve">
<style type="text/css">
	.st0{fill:#FFFFFF;}
	.st1{fill:none;stroke:#FFFFFF;stroke-width:0.75;stroke-miterlimit:10;}
</style>
<g id="XMLID_7_">
	<g id="XMLID_11_">
		<g id="XMLID_12_">
			<path id="XMLID_13_" class="st0" d="M22.3,29.3c-0.2-0.1-0.4-0.1-0.6,0.1l-1.9,2.3l-1-1c-0.2-0.2-0.4-0.3-0.6,0
				c-0.2,0.2-0.2,0.3,0,0.5l1.2,1.2c0.1,0.1,0.2,0.1,0.3,0.1l0,0c0.1,0,0.3-0.1,0.3-0.1l2.2-2.6C22.6,29.5,22.4,29.5,22.3,29.3z"/>
		</g>
	</g>
	<g id="XMLID_8_">
		<g id="XMLID_9_">
			<path id="XMLID_10_" class="st0" d="M20.3,2H-3.3C-3.7,2-4,2.3-4,2.7v32.7c0,0.2,0.1,0.5,0.3,0.6s0.5,0.1,0.7,0l2.9-1.7L2.2,36
				c0.2,0.2,0.5,0.2,0.7,0l2.9-1.7L8.1,36c0.1,0.1,0.3,0.1,0.4,0.1c0.1,0,0.2,0,0.3-0.1l3.3-2c0.3-0.2,0.4-0.3,0.2-0.6
				c-0.2-0.3-0.6-0.1-0.9,0.1l-2.9,1.7l-2.3-1.7c-0.2-0.2-0.5-0.2-0.7,0l-2.9,1.7l-2.3-1.7c-0.2-0.2-0.5-0.2-0.7,0l-2.7,1.6V3h23
				v19.8c0,0.4,0.1,0.5,0.5,0.5s0.5-0.2,0.5-0.6v-20C21,2.3,20.7,2,20.3,2z"/>
		</g>
	</g>
</g>
<path id="XMLID_6_" class="st0" d="M1.6,10.6c0,0.3,0.3,0.5,0.6,0.5h12.9c0.3,0,0.6-0.2,0.6-0.5s-0.3-0.5-0.6-0.5H2.2
	C1.9,10.1,1.6,10.3,1.6,10.6z"/>
<circle id="XMLID_5_" class="st1" cx="20.1" cy="30.8" r="5.6"/>
<path id="XMLID_4_" class="st0" d="M1.6,15.1c0,0.3,0.3,0.5,0.6,0.5h12.9c0.3,0,0.6-0.2,0.6-0.5s-0.3-0.5-0.6-0.5H2.2
	C1.9,14.6,1.6,14.8,1.6,15.1z"/>
<path id="XMLID_3_" class="st0" d="M1.6,19.7c0,0.3,0.3,0.5,0.6,0.5h12.9c0.3,0,0.6-0.2,0.6-0.5s-0.3-0.5-0.6-0.5H2.2
	C1.9,19.2,1.6,19.4,1.6,19.7z"/>
<path id="XMLID_2_" class="st0" d="M1.6,24.7c0,0.3,0.3,0.5,0.6,0.5h12.9c0.3,0,0.6-0.2,0.6-0.5s-0.3-0.5-0.6-0.5H2.2
	C1.9,24.2,1.6,24.4,1.6,24.7z"/>
</svg>
