<?xml version="1.0" encoding="utf-8"?>
<!-- Generator: Adobe Illustrator 19.0.0, SVG Export Plug-In . SVG Version: 6.00 Build 0)  -->
<svg version="1.1" id="Capa_1" xmlns="http://www.w3.org/2000/svg" xmlns:xlink="http://www.w3.org/1999/xlink" x="0px" y="0px"
	 viewBox="-405 279 30 38.3" style="enable-background:new -405 279 30 38.3;" xml:space="preserve">
<style type="text/css">
	.st0{fill:#FFFFFF;}
</style>
<g>
	<g>
		<g>
			<path class="st0" d="M-375,310.2L-375,310.2v-30.6c0-0.4-0.3-0.6-0.6-0.6h-28.8c-0.4,0-0.6,0.3-0.6,0.6v37c0,0.4,0.3,0.6,0.6,0.6
				h22.4c0.2,0,0.3-0.1,0.4-0.2l6.4-6.4c0.1-0.1,0.1-0.1,0.1-0.2v-0.2C-375,310.3-375,310.3-375,310.2z M-403.8,280.2h27.5v29.4
				h-5.7c-0.4,0-0.6,0.3-0.6,0.6v5.7h-21.2V280.2L-403.8,280.2z M-381.4,315.1v-4.3h4.2l-2.1,2.1L-381.4,315.1z"/>
			<path class="st0" d="M-400.6,307h21.2c0.4,0,0.6-0.3,0.6-0.6v-23c0-0.4-0.3-0.6-0.6-0.6h-21.2c-0.4,0-0.6,0.3-0.6,0.6v23
				C-401.3,306.8-401,307-400.6,307z M-400,287.9h4.5v17.9h-4.5C-400,305.7-400,293-400,287.9z M-394.2,297.4h14v3.8h-14V297.4z
				 M-394.2,296.2v-3.8h14v3.8H-394.2z M-394.2,291.1v-3.2h14v3.2H-394.2z M-394.2,305.7v-3.2h14v3.2H-394.2z M-380.1,286.6h-14V284
				h14V286.6z M-395.5,284v2.6h-4.5c0-0.5,0-2.6,0-2.6H-395.5z"/>
			<rect x="-398.7" y="289.1" class="st0" width="1.9" height="1.3"/>
			<rect x="-398.7" y="293.6" class="st0" width="1.9" height="1.3"/>
			<rect x="-398.7" y="298.7" class="st0" width="1.9" height="1.3"/>
			<rect x="-398.7" y="303.2" class="st0" width="1.9" height="1.3"/>
			<path class="st0" d="M-394.9,308.9h-5.7c-0.4,0-0.6,0.3-0.6,0.6v3.8c0,0.4,0.3,0.6,0.6,0.6h5.7c0.4,0,0.6-0.3,0.6-0.6v-3.8
				C-394.2,309.2-394.5,308.9-394.9,308.9z M-395.5,312.8h-4.5v-2.6h4.5V312.8z"/>
			<rect x="-392.3" y="309.6" class="st0" width="4.5" height="1.3"/>
			<rect x="-392.3" y="312.1" class="st0" width="6.4" height="1.3"/>
		</g>
	</g>
</g>
</svg>
