<?xml version="1.0" encoding="utf-8"?>
<!-- Generator: Adobe Illustrator 19.0.0, SVG Export Plug-In . SVG Version: 6.00 Build 0)  -->
<svg version="1.1" id="Layer_1" xmlns="http://www.w3.org/2000/svg" xmlns:xlink="http://www.w3.org/1999/xlink" x="0px" y="0px"
	 viewBox="-405 280.1 30 35.2" style="enable-background:new -405 280.1 30 35.2;" xml:space="preserve">
<style type="text/css">
	.st0{fill:#FFFFFF;}
</style>
<g>
	<g>
		<g>
			<path class="st0" d="M-380.9,303.5c-3.2,0-5.9,2.6-5.9,5.9c0,3.2,2.6,5.9,5.9,5.9c3.2,0,5.9-2.6,5.9-5.9
				C-375,306.1-377.6,303.5-380.9,303.5z M-380.9,313.9c-2.5,0-4.6-2-4.6-4.6c0-2.5,2-4.6,4.6-4.6c2.5,0,4.6,2,4.6,4.6
				C-376.3,311.8-378.4,313.9-380.9,313.9z"/>
		</g>
	</g>
	<g>
		<g>
			<path id="XMLID_13_" class="st0" d="M-377.8,306.9c-0.3-0.2-0.7-0.2-0.9,0.1l-2.8,3.4l-1.5-1.5c-0.3-0.3-0.7-0.3-0.9,0
				c-0.3,0.3-0.3,0.7,0,0.9l2,2c0.1,0.1,0.3,0.2,0.5,0.2l0,0c0.2,0,0.4-0.1,0.5-0.2l3.3-3.9C-377.5,307.5-377.6,307.1-377.8,306.9z"
				/>
		</g>
	</g>
	<g>
		<g>
			<path id="XMLID_12_" class="st0" d="M-380.9,280.1h-23.4c-0.4,0-0.7,0.3-0.7,0.7v32.5c0,0.2,0.1,0.5,0.3,0.6s0.5,0.1,0.7,0
				l2.9-1.7l2.3,1.7c0.2,0.2,0.5,0.2,0.7,0l2.9-1.7l2.3,1.7c0.1,0.1,0.3,0.1,0.4,0.1c0.1,0,0.2,0,0.3-0.1l3.3-2
				c0.3-0.2,0.4-0.6,0.2-0.9s-0.6-0.4-0.9-0.2l-2.9,1.7l-2.3-1.7c-0.2-0.2-0.5-0.2-0.7,0l-2.9,1.7l-2.3-1.7c-0.2-0.2-0.5-0.2-0.7,0
				l-2.3,1.4v-30.8h22.1v20.2c0,0.4,0.3,0.7,0.7,0.7c0.4,0,0.7-0.3,0.7-0.7v-20.9C-380.2,280.3-380.5,280.1-380.9,280.1z"/>
		</g>
	</g>
	<g>
		<g>
			<path id="XMLID_11_" class="st0" d="M-397.7,285.9h-3.3c-0.4,0-0.7,0.3-0.7,0.7s0.3,0.7,0.7,0.7h3.3c0.4,0,0.7-0.3,0.7-0.7
				C-397.1,286.1-397.4,285.9-397.7,285.9z"/>
		</g>
	</g>
	<g>
		<g>
			<path id="XMLID_10_" class="st0" d="M-385.4,289.1h-3.3c-0.4,0-0.7,0.3-0.7,0.7s0.3,0.7,0.7,0.7h3.3c0.4,0,0.7-0.3,0.7-0.7
				S-385.1,289.1-385.4,289.1z"/>
		</g>
	</g>
	<g>
		<g>
			<path id="XMLID_9_" class="st0" d="M-385.4,292.4h-3.3c-0.4,0-0.7,0.3-0.7,0.7s0.3,0.7,0.7,0.7h3.3c0.4,0,0.7-0.3,0.7-0.7
				S-385.1,292.4-385.4,292.4z"/>
		</g>
	</g>
	<g>
		<g>
			<path id="XMLID_8_" class="st0" d="M-385.4,295.6h-3.3c-0.4,0-0.7,0.3-0.7,0.7s0.3,0.7,0.7,0.7h3.3c0.4,0,0.7-0.3,0.7-0.7
				S-385.1,295.6-385.4,295.6z"/>
		</g>
	</g>
	<g>
		<g>
			<path id="XMLID_7_" class="st0" d="M-385.4,298.9h-3.3c-0.4,0-0.7,0.3-0.7,0.7s0.3,0.7,0.7,0.7h3.3c0.4,0,0.7-0.3,0.7-0.7
				S-385.1,298.9-385.4,298.9z"/>
		</g>
	</g>
	<g>
		<g>
			<path id="XMLID_6_" class="st0" d="M-385.4,302.2h-3.3c-0.4,0-0.7,0.3-0.7,0.7s0.3,0.7,0.7,0.7h3.3c0.4,0,0.7-0.3,0.7-0.7
				S-385.1,302.2-385.4,302.2z"/>
		</g>
	</g>
	<g>
		<g>
			<path id="XMLID_5_" class="st0" d="M-391.9,289.1h-9.1c-0.4,0-0.7,0.3-0.7,0.7s0.3,0.7,0.7,0.7h9.1c0.4,0,0.7-0.3,0.7-0.7
				S-391.5,289.1-391.9,289.1z"/>
		</g>
	</g>
	<g>
		<g>
			<path id="XMLID_4_" class="st0" d="M-391.9,292.4h-9.1c-0.4,0-0.7,0.3-0.7,0.7s0.3,0.7,0.7,0.7h9.1c0.4,0,0.7-0.3,0.7-0.7
				S-391.5,292.4-391.9,292.4z"/>
		</g>
	</g>
	<g>
		<g>
			<path id="XMLID_3_" class="st0" d="M-391.9,295.6h-9.1c-0.4,0-0.7,0.3-0.7,0.7s0.3,0.7,0.7,0.7h9.1c0.4,0,0.7-0.3,0.7-0.7
				S-391.5,295.6-391.9,295.6z"/>
		</g>
	</g>
	<g>
		<g>
			<path id="XMLID_2_" class="st0" d="M-391.9,298.9h-9.1c-0.4,0-0.7,0.3-0.7,0.7s0.3,0.7,0.7,0.7h9.1c0.4,0,0.7-0.3,0.7-0.7
				S-391.5,298.9-391.9,298.9z"/>
		</g>
	</g>
	<g>
		<g>
			<path id="XMLID_1_" class="st0" d="M-391.9,302.2h-9.1c-0.4,0-0.7,0.3-0.7,0.7s0.3,0.7,0.7,0.7h9.1c0.4,0,0.7-0.3,0.7-0.7
				S-391.5,302.2-391.9,302.2z"/>
		</g>
	</g>
</g>
</svg>
