<?xml version="1.0" encoding="utf-8"?>
<!-- Generator: Adobe Illustrator 19.0.0, SVG Export Plug-In . SVG Version: 6.00 Build 0)  -->
<svg version="1.1" id="Layer_1" xmlns="http://www.w3.org/2000/svg" xmlns:xlink="http://www.w3.org/1999/xlink" x="0px" y="0px"
	 viewBox="-4 2 30 40" style="enable-background:new -4 2 30 40;" xml:space="preserve">
<style type="text/css">
	.st0{fill:#FFFFFF;}
	.st1{fill:none;stroke:#FFFFFF;stroke-width:0.75;stroke-miterlimit:10;}
</style>
<g id="XMLID_57_">
	<g id="XMLID_58_">
		<g id="XMLID_59_">
			<path id="XMLID_62_" class="st0" d="M26,33.3L26,33.3V2.6C26,2.3,25.7,2,25.4,2H-3.4C-3.7,2-4,2.3-4,2.6v37
				c0,0.4,0.3,0.6,0.6,0.6H19c0.2,0,0.3-0.1,0.4-0.2l6.4-6.4c0.1-0.1,0.1-0.1,0.1-0.2v-0.1C26,33.4,26,33.3,26,33.3z M-3,3.1h28
				v29.6h-6.1c-0.4,0-0.6,0.3-0.6,0.6v6.1H-3V3.1z M19.1,39.1v-5.7h5.7l-2.6,2.8L19.1,39.1z"/>
			<path id="XMLID_42_" class="st0" d="M2.8,32.4h4.4c0.2,0,0.3,0.1,0.3,0.2v0.2c0,0.1-0.2,0.2-0.3,0.2H2.8c-0.2,0-0.3-0.1-0.3-0.2
				v-0.2C2.5,32.5,2.6,32.4,2.8,32.4z"/>
			<path id="XMLID_12_" class="st0" d="M2.9,34.8h5.8c0.3,0,0.5,0.1,0.5,0.2v0.2c0,0.1-0.2,0.2-0.5,0.2H2.9c-0.3,0-0.5-0.1-0.5-0.2
				V35C2.5,34.9,2.7,34.8,2.9,34.8z"/>
		</g>
	</g>
</g>
<path id="XMLID_40_" class="st1" d="M19.8,15.2H3c-0.2,0-0.4-0.2-0.4-0.4v-5c0-0.2,0.2-0.4,0.4-0.4h16.8c0.2,0,0.4,0.2,0.4,0.4v5
	C20.2,15,20,15.2,19.8,15.2z"/>
<path id="XMLID_39_" class="st1" d="M19.8,20.8H3c-0.2,0-0.4-0.2-0.4-0.4v-5C2.6,15.2,2.8,15,3,15h16.8c0.2,0,0.4,0.2,0.4,0.4v5
	C20.1,20.6,20,20.8,19.8,20.8z"/>
<path id="XMLID_38_" class="st1" d="M19.8,26.5H3c-0.2,0-0.4-0.2-0.4-0.4v-5c0-0.2,0.2-0.4,0.4-0.4h16.8c0.2,0,0.4,0.2,0.4,0.4v5
	C20.2,26.3,20,26.5,19.8,26.5z"/>
<line id="XMLID_37_" class="st1" x1="7.5" y1="9.5" x2="7.5" y2="26.5"/>
</svg>
