<?xml version="1.0" encoding="utf-8"?>
<!-- Generator: Adobe Illustrator 19.0.0, SVG Export Plug-In . SVG Version: 6.00 Build 0)  -->
<svg version="1.1" id="Layer_1" xmlns="http://www.w3.org/2000/svg" xmlns:xlink="http://www.w3.org/1999/xlink" x="0px" y="0px"
	 viewBox="-405 278.6 30 38.7" style="enable-background:new -405 278.6 30 38.7;" xml:space="preserve">
<g>
	<g>
		<g>
			<path d="M-375.8,278.5h-28.4c-0.4,0-0.8,0.4-0.8,0.8v37.3c0,0.4,0.4,0.8,0.8,0.8h22.1l0,0c0.2,0,0.4-0.1,0.6-0.2l6.3-6.3
				c0.2-0.2,0.2-0.4,0.2-0.6l0,0v-31C-375,278.9-375.3,278.5-375.8,278.5z M-381.3,314.7v-3.6h3.6L-381.3,314.7z M-376.5,309.4h-5.5
				c-0.4,0-0.8,0.4-0.8,0.8v5.5h-20.5V280h26.8L-376.5,309.4L-376.5,309.4z"/>
			<rect x="-400.6" y="282.5" width="6.3" height="1.6"/>
			<rect x="-400.6" y="284.9" width="10.3" height="1.6"/>
			<path d="M-399.8,312.6h14.2V311h-7.5v-7.1h12.2v3.2h1.6v-17.8c0-0.4-0.4-0.8-0.8-0.8h-19.7c-0.4,0-0.8,0.4-0.8,0.8v22.6
				C-400.6,312.3-400.3,312.6-399.8,312.6z M-393.1,290h12.2v2.8h-12.2V290z M-393.1,294.4h12.2v3.2h-12.2V294.4z M-393.1,299.1
				h12.2v3.2h-12.2V299.1z M-399,290h4.3v2.8h-4.3V290z M-399,294.4h4.3V311h-4.3V294.4z"/>
			<rect x="-397.9" y="295.6" width="2" height="1.6"/>
			<rect x="-397.9" y="300.3" width="2" height="1.6"/>
			<rect x="-397.9" y="305.1" width="2" height="1.6"/>
			<rect x="-397.9" y="308.3" width="2" height="1.6"/>
		</g>
	</g>
</g>
</svg>
