<?xml version="1.0" encoding="utf-8"?>
<!-- Generator: Adobe Illustrator 16.0.0, SVG Export Plug-In . SVG Version: 6.00 Build 0)  -->
<!DOCTYPE svg PUBLIC "-//W3C//DTD SVG 1.1//EN" "http://www.w3.org/Graphics/SVG/1.1/DTD/svg11.dtd">
<svg version="1.1" id="Capa_1" xmlns="http://www.w3.org/2000/svg" xmlns:xlink="http://www.w3.org/1999/xlink" x="0px" y="0px"
	 width="612px" height="680.5px" viewBox="0 0 612 680.5" enable-background="new 0 0 612 680.5" xml:space="preserve">
<g>
	<path fill="#FFFFFF" d="M569.16,0.59h-397.8c-22.44,0-40.8,18.36-40.8,40.8v91.801C55.08,155.63,0,224.99,0,306.59
		c0,81.602,55.08,153,130.56,173.4v159.119c0,22.44,18.36,40.801,40.8,40.801h326.4c4.08,0,8.16-2.041,10.2-4.08l99.96-99.961
		c2.04-2.039,4.08-6.119,4.08-10.199V41.39C609.96,18.95,591.6,0.59,569.16,0.59z M171.36,29.15h397.8
		c6.119,0,12.24,6.12,12.24,12.24v44.881H159.12V41.39C159.12,37.311,165.24,29.15,171.36,29.15z M28.56,310.67
		c0-83.64,67.32-150.96,150.96-150.96s150.96,67.32,150.96,150.96c0,83.64-67.32,150.96-150.96,150.96
		C95.88,459.59,28.56,392.271,28.56,310.67z M159.12,643.191v-153c6.12,0,14.28,2.039,20.4,2.039c55.08,0,102-24.48,136.68-61.199
		h89.76c8.16,0,14.28-6.121,14.28-14.281s-6.119-14.279-14.28-14.279H336.6c12.24-22.44,20.4-46.92,22.44-73.441h44.88
		c8.16,0,14.281-6.12,14.281-14.28s-6.12-14.28-14.281-14.28h-44.88c-2.04-26.52-10.2-51-22.44-73.44h67.32
		c8.16,0,14.28-6.119,14.28-14.279s-6.12-14.281-14.28-14.281H316.2c-32.64-38.76-83.64-65.279-138.72-65.279
		c-6.12,0-14.28,0-20.4,2.039v-14.279h422.281v434.52h-59.16c-22.44,0-40.801,18.359-40.801,40.799v59.16H171.36
		C165.24,653.391,159.12,649.311,159.12,643.191z M512.04,632.99v-38.76c0-6.119,6.12-12.24,12.24-12.24H561L512.04,632.99z"/>
	<path fill="#FFFFFF" d="M463.08,222.951h48.96c8.16,0,14.28-6.12,14.28-14.281c0-8.16-6.119-14.279-14.28-14.279h-48.96
		c-8.16,0-14.279,6.119-14.279,14.279C448.801,216.831,454.92,222.951,463.08,222.951z"/>
	<path fill="#FFFFFF" d="M463.08,324.951h48.96c8.16,0,14.28-6.12,14.28-14.281c0-8.16-6.119-14.279-14.28-14.279h-48.96
		c-8.16,0-14.279,6.119-14.279,14.279C448.801,318.831,454.92,324.951,463.08,324.951z"/>
	<path fill="#FFFFFF" d="M463.08,428.99h48.96c8.16,0,14.28-6.119,14.28-14.279c0-8.162-6.119-14.281-14.28-14.281h-48.96
		c-8.16,0-14.279,6.119-14.279,14.281C448.801,422.871,454.92,428.99,463.08,428.99z"/>
	<path fill="#FFFFFF" d="M510,530.99c8.16,0,14.28-6.119,14.28-14.279c0-8.162-6.12-14.281-14.28-14.281H373.32
		c-8.16,0-14.281,6.119-14.281,14.281c0,8.16,6.12,14.279,14.281,14.279H510z"/>
	<path fill="#FFFFFF" d="M291.72,235.191l-18.36-18.36c-4.08-4.081-10.2-8.16-18.36-8.16c-6.12,0-12.24,2.04-18.36,8.16l-89.76,91.8
		l-26.52-26.52c-4.081-4.08-10.2-8.16-18.36-8.16c-6.12,0-12.24,2.04-18.36,8.16L65.28,300.47c-10.2,10.2-10.2,26.52,0,36.721
		l61.2,61.2c4.08,4.08,10.2,8.16,18.36,8.16l0,0c6.12,0,12.24-2.041,18.36-8.16l128.52-128.52
		C301.92,261.71,301.92,243.35,291.72,235.191z M146.88,377.99L91.8,322.91l12.24-12.24l32.64,32.641c6.12,6.119,14.28,6.119,20.4,0
		l99.959-99.959l12.24,12.24L146.88,377.99z"/>
</g>
</svg>
