<?xml version="1.0" encoding="utf-8"?>
<!-- Generator: Adobe Illustrator 19.0.0, SVG Export Plug-In . SVG Version: 6.00 Build 0)  -->
<svg version="1.1" id="Layer_1" xmlns="http://www.w3.org/2000/svg" xmlns:xlink="http://www.w3.org/1999/xlink" x="0px" y="0px"
	 viewBox="-405 280.1 30 35.2" style="enable-background:new -405 280.1 30 35.2;" xml:space="preserve">
<g>
	<g>
		<g>
			<path d="M-380.9,303.5c-3.2,0-5.9,2.6-5.9,5.9c0,3.2,2.6,5.9,5.9,5.9c3.2,0,5.9-2.6,5.9-5.9S-377.6,303.5-380.9,303.5z
				 M-380.9,313.9c-2.5,0-4.6-2-4.6-4.6c0-2.5,2-4.6,4.6-4.6c2.5,0,4.6,2,4.6,4.6C-376.3,311.8-378.4,313.9-380.9,313.9z"/>
		</g>
	</g>
	<g>
		<g>
			<path d="M-377.8,306.9c-0.3-0.2-0.7-0.2-0.9,0.1l-2.8,3.4l-1.5-1.5c-0.3-0.3-0.7-0.3-0.9,0c-0.3,0.3-0.3,0.7,0,0.9l2,2
				c0.1,0.1,0.3,0.2,0.5,0.2l0,0c0.2,0,0.4-0.1,0.5-0.2l3.3-3.9C-377.5,307.5-377.6,307.2-377.8,306.9z"/>
		</g>
	</g>
	<g>
		<g>
			<path d="M-380.9,280.1h-23.4c-0.4,0-0.7,0.3-0.7,0.7v32.6c0,0.2,0.1,0.5,0.3,0.6s0.5,0.1,0.7,0l2.9-1.7l2.3,1.7
				c0.2,0.2,0.5,0.2,0.7,0l2.9-1.7l2.3,1.7c0.1,0.1,0.3,0.1,0.4,0.1c0.1,0,0.2,0,0.3-0.1l3.3-2c0.3-0.2,0.4-0.6,0.2-0.9
				s-0.6-0.4-0.9-0.2l-2.9,1.7l-2.3-1.7c-0.2-0.2-0.5-0.2-0.7,0l-2.9,1.7l-2.3-1.7c-0.2-0.2-0.5-0.2-0.7,0l-2.3,1.4v-30.8h22.1v20.2
				c0,0.4,0.3,0.7,0.7,0.7c0.4,0,0.7-0.3,0.7-0.7v-20.9C-380.2,280.3-380.5,280.1-380.9,280.1z"/>
		</g>
	</g>
	<g>
		<g>
			<path d="M-397.7,285.9h-3.3c-0.4,0-0.7,0.3-0.7,0.7s0.3,0.7,0.7,0.7h3.3c0.4,0,0.7-0.3,0.7-0.7
				C-397.2,286.2-397.5,285.9-397.7,285.9z"/>
		</g>
	</g>
	<g>
		<g>
			<path d="M-385.4,289.2h-3.3c-0.4,0-0.7,0.3-0.7,0.7s0.3,0.7,0.7,0.7h3.3c0.4,0,0.7-0.3,0.7-0.7S-385.1,289.2-385.4,289.2z"/>
		</g>
	</g>
	<g>
		<g>
			<path d="M-385.4,292.4h-3.3c-0.4,0-0.7,0.3-0.7,0.7s0.3,0.7,0.7,0.7h3.3c0.4,0,0.7-0.3,0.7-0.7S-385.1,292.4-385.4,292.4z"/>
		</g>
	</g>
	<g>
		<g>
			<path d="M-385.4,295.7h-3.3c-0.4,0-0.7,0.3-0.7,0.7s0.3,0.7,0.7,0.7h3.3c0.4,0,0.7-0.3,0.7-0.7S-385.1,295.7-385.4,295.7z"/>
		</g>
	</g>
	<g>
		<g>
			<path d="M-385.4,298.9h-3.3c-0.4,0-0.7,0.3-0.7,0.7s0.3,0.7,0.7,0.7h3.3c0.4,0,0.7-0.3,0.7-0.7S-385.1,298.9-385.4,298.9z"/>
		</g>
	</g>
	<g>
		<g>
			<path d="M-385.4,302.2h-3.3c-0.4,0-0.7,0.3-0.7,0.7s0.3,0.7,0.7,0.7h3.3c0.4,0,0.7-0.3,0.7-0.7S-385.1,302.2-385.4,302.2z"/>
		</g>
	</g>
	<g>
		<g>
			<path d="M-392,289.2h-9.1c-0.4,0-0.7,0.3-0.7,0.7s0.3,0.7,0.7,0.7h9.1c0.4,0,0.7-0.3,0.7-0.7S-391.6,289.2-392,289.2z"/>
		</g>
	</g>
	<g>
		<g>
			<path d="M-392,292.4h-9.1c-0.4,0-0.7,0.3-0.7,0.7s0.3,0.7,0.7,0.7h9.1c0.4,0,0.7-0.3,0.7-0.7S-391.6,292.4-392,292.4z"/>
		</g>
	</g>
	<g>
		<g>
			<path d="M-392,295.7h-9.1c-0.4,0-0.7,0.3-0.7,0.7s0.3,0.7,0.7,0.7h9.1c0.4,0,0.7-0.3,0.7-0.7S-391.6,295.7-392,295.7z"/>
		</g>
	</g>
	<g>
		<g>
			<path d="M-392,298.9h-9.1c-0.4,0-0.7,0.3-0.7,0.7s0.3,0.7,0.7,0.7h9.1c0.4,0,0.7-0.3,0.7-0.7S-391.6,298.9-392,298.9z"/>
		</g>
	</g>
	<g>
		<g>
			<path d="M-392,302.2h-9.1c-0.4,0-0.7,0.3-0.7,0.7s0.3,0.7,0.7,0.7h9.1c0.4,0,0.7-0.3,0.7-0.7S-391.6,302.2-392,302.2z"/>
		</g>
	</g>
</g>
</svg>
