<?xml version="1.0" encoding="utf-8"?>
<!-- Generator: Adobe Illustrator 19.0.0, SVG Export Plug-In . SVG Version: 6.00 Build 0)  -->
<svg version="1.1" id="Capa_1" xmlns="http://www.w3.org/2000/svg" xmlns:xlink="http://www.w3.org/1999/xlink" x="0px" y="0px"
	 viewBox="177 -98.7 30 38.8" style="enable-background:new 177 -98.7 30 38.8;" xml:space="preserve">
<style type="text/css">
	.st0{fill:#231F20;}
</style>
<g>
	<g>
		<g>
			<path class="st0" d="M207-67.2L207-67.2v-30.6c0-0.4-0.3-0.6-0.6-0.6h-28.7c-0.4,0-0.6,0.3-0.6,0.6v37c0,0.4,0.3,0.6,0.6,0.6H200
				c0.2,0,0.3-0.1,0.4-0.2l6.4-6.4c0.1-0.1,0.1-0.1,0.1-0.2V-67C207-67.1,207-67.1,207-67.2z M178.3-97.2h27.4v29.4H200
				c-0.4,0-0.6,0.3-0.6,0.6v5.7h-21.1V-97.2z M200.6-62.3v-4.2h4.2l-2.1,2.1L200.6-62.3z"/>
			<path class="st0" d="M181.5-70.4h21.1c0.4,0,0.6-0.3,0.6-0.6v-23c0-0.4-0.3-0.6-0.6-0.6h-21.1c-0.4,0-0.6,0.3-0.6,0.6v23
				C180.8-70.6,181.1-70.4,181.5-70.4z M182.1-89.5h4.5v17.9h-4.5C182.1-71.6,182.1-84.4,182.1-89.5z M187.9-79.9h14v3.8h-14V-79.9z
				 M187.9-81.2v-3.8h14v3.8H187.9z M187.9-86.3v-3.2h14v3.2H187.9z M187.9-71.6v-3.2h14v3.2H187.9z M201.9-90.8h-14v-2.6h14V-90.8z
				 M186.6-93.4v2.6h-4.5c0-0.5,0-2.6,0-2.6H186.6z"/>
			<rect x="183.4" y="-88.2" class="st0" width="1.9" height="1.3"/>
			<rect x="183.4" y="-83.8" class="st0" width="1.9" height="1.3"/>
			<rect x="183.4" y="-78.7" class="st0" width="1.9" height="1.3"/>
			<rect x="183.4" y="-74.2" class="st0" width="1.9" height="1.3"/>
			<path class="st0" d="M187.2-68.5h-5.7c-0.4,0-0.6,0.3-0.6,0.6v3.8c0,0.4,0.3,0.6,0.6,0.6h5.7c0.4,0,0.6-0.3,0.6-0.6v-3.8
				C187.9-68.2,187.6-68.5,187.2-68.5z M186.6-64.6h-4.5v-2.6h4.5V-64.6L186.6-64.6z"/>
			<rect x="189.8" y="-67.8" class="st0" width="4.5" height="1.3"/>
			<rect x="189.8" y="-65.3" class="st0" width="6.4" height="1.3"/>
		</g>
	</g>
</g>
</svg>
