<?xml version="1.0" encoding="utf-8"?>
<!-- Generator: Adobe Illustrator 19.0.0, SVG Export Plug-In . SVG Version: 6.00 Build 0)  -->
<svg version="1.1" id="Capa_1" xmlns="http://www.w3.org/2000/svg" xmlns:xlink="http://www.w3.org/1999/xlink" x="0px" y="0px"
	 viewBox="200 162.5 30 34.7" style="enable-background:new 200 162.5 30 34.7;" xml:space="preserve">
<style type="text/css">
	.st0{fill:#FFFFFF;}
</style>
<path id="XMLID_1739_" class="st0" d="M218.2,179.4c0.3,0.3,0.3,0.7,0,1l-3.1,3.1l2.4,2.4c0.3,0.3,0.3,0.7,0,1
	c-0.1,0.1-0.3,0.2-0.5,0.2c-0.2,0-0.4-0.1-0.5-0.2l-2.4-2.4l-0.9,0.9c-0.3,0.3-0.7,0.3-1,0c-0.3-0.3-0.3-0.7,0-1l0.9-0.9l-5.3-5.3
	c-0.3-0.3-0.3-0.7,0-1c0.3-0.3,0.7-0.3,1,0l5.3,5.3l3.1-3.1C217.4,179.1,217.9,179.1,218.2,179.4z M229.9,176.3
	c-0.2,0.4-0.6,0.6-1.1,0.6l-2.9-0.3c1.2,2.1,1.9,4.5,1.9,6.9c0,3.9-1.6,7.4-4.2,9.9l2.4,2.4h1.1c0.4,0,0.7,0.3,0.7,0.7
	c0,0.4-0.3,0.7-0.7,0.7h-2.9c-0.4,0-0.7-0.3-0.7-0.7c0-0.3,0.2-0.6,0.5-0.7l-1.5-1.5c-2.3,1.8-5.2,2.9-8.4,2.9
	c-3.2,0-6.1-1.1-8.4-2.9l-1.5,1.5c0.3,0.1,0.5,0.4,0.5,0.7c0,0.4-0.3,0.7-0.7,0.7h-2.9c-0.4,0-0.7-0.3-0.7-0.7
	c0-0.4,0.3-0.7,0.7-0.7h1.1l2.4-2.4c-2.6-2.5-4.2-6-4.2-9.9c0-3.5,1.3-6.9,3.7-9.4l-3.2-0.4c-0.4-0.1-0.8-0.4-0.9-0.8
	c-0.1-0.5,0.1-0.9,0.5-1.2l5.7-3.3l0.9-2.8c0.3-1,0.9-1.8,1.7-2.4c0.8-0.6,1.8-0.8,2.8-0.7l9.4,1.1c1,0.1,1.9,0.6,2.5,1.3
	c0.7,0.7,1.1,1.7,1.2,2.7l0.3,2.9l4.8,4.5C230,175.4,230.1,175.9,229.9,176.3z M207.7,168.3l15.7,1.8l-0.2-2.3
	c-0.1-1.4-1.1-2.5-2.4-2.7l-9.4-1.1c-1.3-0.2-2.5,0.7-3,2.1L207.7,168.3z M224,176.4l-18.1-2.1c-2.5,2.2-3.9,5.2-4.1,8.5h2.1
	c0.4,0,0.7,0.3,0.7,0.7c0,0.4-0.3,0.7-0.7,0.7h-2.1c0.4,6.2,5.3,11.2,11.5,11.5v-2.1c0-0.4,0.3-0.7,0.7-0.7s0.7,0.3,0.7,0.7v2.1
	c6.2-0.4,11.2-5.3,11.5-11.5h-2.1c-0.4,0-0.7-0.3-0.7-0.7c0-0.4,0.3-0.7,0.7-0.7h2.1C226.2,180.5,225.4,178.3,224,176.4z
	 M227.9,175.4l-4-3.8l-17-2l-4.7,2.8L227.9,175.4z"/>
</svg>
