<?xml version="1.0" encoding="utf-8"?>
<!-- Generator: Adobe Illustrator 19.0.0, SVG Export Plug-In . SVG Version: 6.00 Build 0)  -->
<svg version="1.1" id="Capa_1" xmlns="http://www.w3.org/2000/svg" xmlns:xlink="http://www.w3.org/1999/xlink" x="0px" y="0px"
	 viewBox="-282 401.7 30 38.2" style="enable-background:new -282 401.7 30 38.2;" xml:space="preserve">
<g>
	<path d="M-252.2,411.4L-252.2,411.4L-252.2,411.4c0-0.1,0-0.1,0-0.1l0,0c0,0,0,0,0-0.1l0,0c0,0,0,0,0-0.1l0,0l0,0l0,0l0,0l0,0l0,0
		l0,0l-9.4-9.4l0,0c0,0,0,0-0.1,0l0,0l0,0l0,0l0,0l0,0c0,0,0,0-0.1,0l0,0c0,0,0,0-0.1,0l0,0c0,0,0,0-0.1,0l0,0c0,0,0,0-0.1,0l0,0
		l0,0l0,0h-19.2c-0.4,0-0.7,0.3-0.7,0.7v36.8c0,0.4,0.3,0.7,0.7,0.7h28.6c0.4,0,0.7-0.3,0.7-0.7L-252.2,411.4L-252.2,411.4
		L-252.2,411.4C-252.2,411.5-252.2,411.5-252.2,411.4C-252.2,411.5-252.2,411.5-252.2,411.4z M-254.6,410.8h-7v-7L-254.6,410.8z
		 M-253.6,438.2h-27.2v-35.4h17.8v8.7c0,0.2,0.1,0.4,0.2,0.5s0.3,0.2,0.5,0.2h8.7V438.2z"/>
	<path d="M-271.9,411.3c1.6,0,2.9-1.3,2.9-2.9c0-1.6-1.3-2.9-2.9-2.9c-1.6,0-2.9,1.3-2.9,2.9C-274.8,410-273.5,411.3-271.9,411.3z
		 M-271.9,406.8c0.8,0,1.5,0.7,1.5,1.5c0,0.8-0.7,1.5-1.5,1.5c-0.8,0-1.5-0.7-1.5-1.5C-273.4,407.5-272.7,406.8-271.9,406.8z"/>
	<path d="M-275.2,416.6c0.4,0,0.7-0.3,0.7-0.7v-1.2c0-0.8,0.6-1.4,1.4-1.4h2.3c0.8,0,1.4,0.6,1.4,1.4v1.2c0,0.4,0.3,0.7,0.7,0.7
		s0.7-0.3,0.7-0.7v-1.2c0-1.6-1.3-2.9-2.9-2.9h-2.3c-1.6,0-2.9,1.3-2.9,2.9v1.2C-275.9,416.3-275.6,416.6-275.2,416.6z"/>
	<path d="M-275.9,421.6c0,0.4,0.3,0.7,0.7,0.7h16c0.4,0,0.7-0.3,0.7-0.7s-0.3-0.7-0.7-0.7h-16C-275.6,420.9-275.9,421.2-275.9,421.6
		z"/>
	<path d="M-259.2,431.3h-16c-0.4,0-0.7,0.3-0.7,0.7s0.3,0.7,0.7,0.7h16c0.4,0,0.7-0.3,0.7-0.7S-258.8,431.3-259.2,431.3z"/>
	<path d="M-259.2,426.1h-16c-0.4,0-0.7,0.3-0.7,0.7s0.3,0.7,0.7,0.7h16c0.4,0,0.7-0.3,0.7-0.7S-258.8,426.1-259.2,426.1z"/>
</g>
</svg>
