<?xml version="1.0" encoding="utf-8"?>
<!-- Generator: Adobe Illustrator 19.0.0, SVG Export Plug-In . SVG Version: 6.00 Build 0)  -->
<svg version="1.1" id="Capa_1" xmlns="http://www.w3.org/2000/svg" xmlns:xlink="http://www.w3.org/1999/xlink" x="0px" y="0px"
	 viewBox="-282 403.2 30 34.7" style="enable-background:new -282 403.2 30 34.7;" xml:space="preserve">
<path id="XMLID_1739_" d="M-263.8,420.1c0.3,0.3,0.3,0.7,0,1l-3.1,3.1l2.4,2.4c0.3,0.3,0.3,0.7,0,1c-0.1,0.1-0.3,0.2-0.5,0.2
	s-0.4-0.1-0.5-0.2l-2.4-2.4l-0.9,0.9c-0.3,0.3-0.7,0.3-1,0c-0.3-0.3-0.3-0.7,0-1l0.9-0.9l-5.3-5.3c-0.3-0.3-0.3-0.7,0-1
	c0.3-0.3,0.7-0.3,1,0l5.3,5.3l3.1-3.1C-264.6,419.8-264.1,419.8-263.8,420.1z M-252.1,417c-0.2,0.4-0.6,0.6-1.1,0.6l-2.9-0.3
	c1.2,2.1,1.9,4.5,1.9,6.9c0,3.9-1.6,7.4-4.2,9.9l2.4,2.4h1.1c0.4,0,0.7,0.3,0.7,0.7s-0.3,0.7-0.7,0.7h-2.9c-0.4,0-0.7-0.3-0.7-0.7
	c0-0.3,0.2-0.6,0.5-0.7l-1.5-1.5c-2.3,1.8-5.2,2.9-8.4,2.9c-3.2,0-6.1-1.1-8.4-2.9l-1.5,1.5c0.3,0.1,0.5,0.4,0.5,0.7
	c0,0.4-0.3,0.7-0.7,0.7h-2.9c-0.4,0-0.7-0.3-0.7-0.7s0.3-0.7,0.7-0.7h1.1l2.4-2.4c-2.6-2.5-4.2-6-4.2-9.9c0-3.5,1.3-6.9,3.7-9.4
	l-3.2-0.4c-0.4-0.1-0.8-0.4-0.9-0.8c-0.1-0.5,0.1-0.9,0.5-1.2l5.7-3.3l0.9-2.8c0.3-1,0.9-1.8,1.7-2.4c0.8-0.6,1.8-0.8,2.8-0.7
	l9.4,1.1c1,0.1,1.9,0.6,2.5,1.3c0.7,0.7,1.1,1.7,1.2,2.7l0.3,2.9l4.8,4.5C-252,416.1-251.9,416.6-252.1,417z M-274.3,409l15.7,1.8
	l-0.2-2.3c-0.1-1.4-1.1-2.5-2.4-2.7l-9.4-1.1c-1.3-0.2-2.5,0.7-3,2.1L-274.3,409z M-258,417.1l-18.1-2.1c-2.5,2.2-3.9,5.2-4.1,8.5
	h2.1c0.4,0,0.7,0.3,0.7,0.7s-0.3,0.7-0.7,0.7h-2.1c0.4,6.2,5.3,11.2,11.5,11.5v-2.1c0-0.4,0.3-0.7,0.7-0.7s0.7,0.3,0.7,0.7v2.1
	c6.2-0.4,11.2-5.3,11.5-11.5h-2.1c-0.4,0-0.7-0.3-0.7-0.7s0.3-0.7,0.7-0.7h2.1C-255.8,421.2-256.6,419-258,417.1z M-254.1,416.1
	l-4-3.8l-17-2l-4.7,2.8L-254.1,416.1z"/>
</svg>
