<?xml version="1.0" encoding="utf-8"?>
<!-- Generator: Adobe Illustrator 19.0.0, SVG Export Plug-In . SVG Version: 6.00 Build 0)  -->
<svg version="1.1" id="Layer_1" xmlns="http://www.w3.org/2000/svg" xmlns:xlink="http://www.w3.org/1999/xlink" x="0px" y="0px"
	 viewBox="200 164.9 30 30" style="enable-background:new 200 164.9 30 30;" xml:space="preserve">
<style type="text/css">
	.st0{fill:#FFFFFF;}
</style>
<g>
	<g>
		<path class="st0" d="M229.4,180h-1c0-0.1,0-0.1,0-0.2c0-3.5-1.4-6.9-3.9-9.4c-2.3-2.3-5.4-3.7-8.6-3.9v-1.1c0-0.3-0.3-0.6-0.6-0.6
			s-0.6,0.3-0.6,0.6v1.1c-3.3,0.1-6.4,1.5-8.8,3.9c-2.5,2.5-3.9,5.8-3.9,9.4c0,0.1,0,0.1,0,0.2h-1.3c-0.3,0-0.6,0.3-0.6,0.6
			s0.3,0.6,0.6,0.6h1.4c0.3,3,1.6,5.8,3.8,7.9c2.4,2.4,5.5,3.7,8.8,3.9v1.3c0,0.3,0.3,0.6,0.6,0.6s0.6-0.3,0.6-0.6V193
			c6.5-0.3,11.7-5.4,12.4-11.8h1.1c0.3,0,0.6-0.3,0.6-0.6S229.7,180,229.4,180z M218.9,191.2c-1,0.3-2,0.5-3,0.6v-3.4
			c0-0.3-0.3-0.6-0.6-0.6s-0.6,0.3-0.6,0.6v3.4c-1.1,0-2.2-0.3-3.2-0.6v-2.6c0-1.5,0.3-2.7,0.9-3.6c0.6-0.9,1.6-1.4,2.8-1.4
			c1.2,0,2.2,0.5,2.8,1.4c0.6,0.9,0.9,2.1,0.9,3.6V191.2z M211.2,178.5c0-2.1,1.7-3.9,3.9-3.9c2.1,0,3.9,1.7,3.9,3.9
			c0,2.1-1.7,3.9-3.9,3.9C213,182.4,211.2,180.6,211.2,178.5z M227.1,180H224c-0.3,0-0.6,0.3-0.6,0.6s0.3,0.6,0.6,0.6h3.1
			c-0.5,4.2-3.2,7.8-6.9,9.5v-2.1c0-1.7-0.4-3.2-1.1-4.3c-0.4-0.5-0.8-1-1.4-1.3c1.6-0.9,2.7-2.6,2.7-4.5c0-2.8-2.3-5.1-5.1-5.1
			c-2.8,0-5.1,2.3-5.1,5.1c0,1.9,1.1,3.6,2.7,4.5c-0.5,0.3-1,0.7-1.4,1.3c-0.7,1.1-1.1,2.6-1.1,4.3v2.1c-3.7-1.7-6.4-5.2-6.9-9.4
			h3.3c0.3,0,0.6-0.3,0.6-0.6s-0.3-0.6-0.6-0.6h-3.3c0-0.1,0-0.1,0-0.2c0-6.4,5.1-11.7,11.4-12v3.1c0,0.3,0.3,0.6,0.6,0.6
			s0.6-0.3,0.6-0.6v-3.1c6.3,0.4,11.3,5.6,11.3,12C227.1,179.9,227.1,179.9,227.1,180z"/>
	</g>
</g>
</svg>
