<?xml version="1.0" encoding="utf-8"?>
<!-- Generator: Adobe Illustrator 19.0.0, SVG Export Plug-In . SVG Version: 6.00 Build 0)  -->
<svg version="1.1" id="Capa_1" xmlns="http://www.w3.org/2000/svg" xmlns:xlink="http://www.w3.org/1999/xlink" x="0px" y="0px"
	 viewBox="200 160.8 30 38.2" style="enable-background:new 200 160.8 30 38.2;" xml:space="preserve">
<style type="text/css">
	.st0{fill:#FFFFFF;}
</style>
<g>
	<path class="st0" d="M230,170.8C230,170.8,230,170.8,230,170.8C230,170.8,230,170.8,230,170.8c0-0.1,0-0.1,0-0.1c0,0,0,0,0,0
		c0,0,0,0,0-0.1c0,0,0,0,0,0c0,0,0,0,0-0.1c0,0,0,0,0,0c0,0,0,0,0,0c0,0,0,0,0,0c0,0,0,0,0,0c0,0,0,0,0,0c0,0,0,0,0,0c0,0,0,0,0,0
		l-9.4-9.4v0c0,0,0,0-0.1,0c0,0,0,0,0,0c0,0,0,0,0,0c0,0,0,0,0,0c0,0,0,0,0,0c0,0,0,0,0,0c0,0,0,0-0.1,0c0,0,0,0,0,0c0,0,0,0-0.1,0
		c0,0,0,0,0,0c0,0,0,0-0.1,0c0,0,0,0,0,0c0,0,0,0-0.1,0c0,0,0,0,0,0c0,0,0,0,0,0c0,0,0,0,0,0h-19.2c-0.4,0-0.7,0.3-0.7,0.7v36.8
		c0,0.4,0.3,0.7,0.7,0.7h28.6c0.4,0,0.7-0.3,0.7-0.7L230,170.8L230,170.8L230,170.8C230,170.9,230,170.9,230,170.8
		C230,170.9,230,170.9,230,170.8z M227.6,170.2l-7,0l0-7L227.6,170.2z M228.6,197.6h-27.2v-35.4h17.8l0,8.7c0,0.2,0.1,0.4,0.2,0.5
		c0.1,0.1,0.3,0.2,0.5,0.2l8.7,0V197.6z"/>
	<path class="st0" d="M210.3,170.7c1.6,0,2.9-1.3,2.9-2.9s-1.3-2.9-2.9-2.9c-1.6,0-2.9,1.3-2.9,2.9
		C207.4,169.4,208.7,170.7,210.3,170.7z M210.3,166.2c0.8,0,1.5,0.7,1.5,1.5c0,0.8-0.7,1.5-1.5,1.5c-0.8,0-1.5-0.7-1.5-1.5
		C208.8,166.9,209.5,166.2,210.3,166.2z"/>
	<path class="st0" d="M207,176c0.4,0,0.7-0.3,0.7-0.7v-1.2c0-0.8,0.6-1.4,1.4-1.4h2.3c0.8,0,1.4,0.6,1.4,1.4v1.2
		c0,0.4,0.3,0.7,0.7,0.7s0.7-0.3,0.7-0.7v-1.2c0-1.6-1.3-2.9-2.9-2.9h-2.3c-1.6,0-2.9,1.3-2.9,2.9v1.2
		C206.3,175.7,206.6,176,207,176z"/>
	<path class="st0" d="M206.3,181c0,0.4,0.3,0.7,0.7,0.7h16c0.4,0,0.7-0.3,0.7-0.7c0-0.4-0.3-0.7-0.7-0.7h-16
		C206.6,180.3,206.3,180.6,206.3,181z"/>
	<path class="st0" d="M223,190.7h-16c-0.4,0-0.7,0.3-0.7,0.7s0.3,0.7,0.7,0.7h16c0.4,0,0.7-0.3,0.7-0.7
		C223.7,191,223.4,190.7,223,190.7z"/>
	<path class="st0" d="M223,185.5h-16c-0.4,0-0.7,0.3-0.7,0.7s0.3,0.7,0.7,0.7h16c0.4,0,0.7-0.3,0.7-0.7
		C223.7,185.8,223.4,185.5,223,185.5z"/>
</g>
</svg>
