<?xml version="1.0" encoding="utf-8"?>
<!-- Generator: Adobe Illustrator 19.0.0, SVG Export Plug-In . SVG Version: 6.00 Build 0)  -->
<svg version="1.1" id="Layer_1" xmlns="http://www.w3.org/2000/svg" xmlns:xlink="http://www.w3.org/1999/xlink" x="0px" y="0px"
	 viewBox="0 0 15 13" style="enable-background:new 0 0 15 13;" xml:space="preserve">
<g id="XMLID_5_">
	<g id="XMLID_6_">
		<g id="XMLID_7_">
			<path id="XMLID_3_" d="M2,7.2c0.2,0,0.3-0.2,0.3-0.3c0-0.1,0-0.3,0-0.4c0-0.2-0.1-0.3-0.3-0.3S1.6,6.3,1.6,6.5c0,0.1,0,0.3,0,0.5
				C1.7,7.1,1.8,7.2,2,7.2C1.9,7.2,1.9,7.2,2,7.2z"/>
			<path id="XMLID_2_" d="M8.1,0C6.3,0,4.5,0.8,3.3,2.1V0.3C3.3,0.1,3.2,0,3.1,0S2.8,0.1,2.8,0.3v2.8c0,0.2,0.1,0.3,0.3,0.3h2.8
				c0.2,0,0.3-0.1,0.3-0.3C6.2,3,6,2.8,5.9,2.8H3.5c1.1-1.4,2.8-2.3,4.6-2.3c3.3,0,5.9,2.7,5.9,5.9s-2.7,5.9-5.9,5.9
				c-2.6,0-5-1.8-5.7-4.3c0-0.2-0.2-0.2-0.4-0.2S1.8,8.1,1.9,8.3C2.7,11.1,5.3,13,8.1,13c3.6,0,6.5-2.9,6.5-6.5S11.7,0,8.1,0z"/>
			<path id="XMLID_1_" d="M8.1,3.2C8,3.2,7.9,3.4,7.9,3.5v2.7c0,0.1,0,0.1,0.1,0.2L11,9.5c0.1,0.1,0.1,0.1,0.2,0.1
				c0.1,0,0.1,0,0.2-0.1c0.1-0.1,0.1-0.3,0-0.4l-3-3V3.5C8.4,3.4,8.3,3.2,8.1,3.2z"/>
		</g>
	</g>
</g>
</svg>
