<?xml version="1.0" encoding="utf-8"?>
<!-- Generator: Adobe Illustrator 19.0.0, SVG Export Plug-In . SVG Version: 6.00 Build 0)  -->
<svg version="1.1" id="Layer_1" xmlns="http://www.w3.org/2000/svg" xmlns:xlink="http://www.w3.org/1999/xlink" x="0px" y="0px"
	 viewBox="0 0 15 13" style="enable-background:new 0 0 15 13;" xml:space="preserve">
<g>
	<path d="M7.5,0C3.9,0,1,2.9,1,6.5S3.9,13,7.5,13S14,10.1,14,6.5S11.1,0,7.5,0z M7.5,12.5c-3.3,0-6-2.7-6-6s2.7-6,6-6s6,2.7,6,6
		S10.8,12.5,7.5,12.5z"/>
	<path id="XMLID_1_" d="M9.9,4.1C9.8,4,9.7,4,9.6,4.1L7.5,6.1L5.4,4.1C5.3,4,5.2,4,5.1,4.1C5,4.2,5,4.3,5.1,4.4l2.1,2.1L5.1,8.6
		C5,8.7,5,8.8,5.1,8.9C5.1,9,5.2,9,5.2,9s0.1,0,0.2-0.1l2.1-2.1l2.1,2.1C9.6,9,9.7,9,9.8,9s0.1,0,0.2-0.1c0.1-0.1,0.1-0.3,0-0.4
		L7.9,6.5l2.1-2.1C10,4.3,10,4.2,9.9,4.1z"/>
</g>
</svg>
