<?xml version="1.0" encoding="utf-8"?>
<!-- Generator: Adobe Illustrator 19.0.0, SVG Export Plug-In . SVG Version: 6.00 Build 0)  -->
<svg version="1.1" id="Layer_1" xmlns="http://www.w3.org/2000/svg" xmlns:xlink="http://www.w3.org/1999/xlink" x="0px" y="0px"
	 viewBox="0 0 15 13" style="enable-background:new 0 0 15 13;" xml:space="preserve">
<style type="text/css">
	.st0{fill:#FFFFFF;}
</style>
<g>
	<path class="st0" d="M13.3,5.1h-1.2c-0.2,0-0.4-0.1-0.4-0.3c-0.1-0.2,0-0.4,0.1-0.5l0.9-0.9c0.1-0.1,0.2-0.3,0.2-0.5
		c0-0.2-0.1-0.3-0.2-0.5l-1.1-1.1c-0.3-0.3-0.7-0.3-0.9,0L9.7,2.2C9.6,2.4,9.4,2.4,9.2,2.3C9.1,2.2,8.9,2.1,8.9,1.9V0.7
		C8.9,0.3,8.6,0,8.3,0H6.7C6.4,0,6.1,0.3,6.1,0.7v1.2c0,0.2-0.1,0.4-0.3,0.4c-0.2,0.1-0.4,0-0.5-0.1L4.4,1.4c-0.3-0.3-0.7-0.3-0.9,0
		L2.4,2.5C2.2,2.6,2.2,2.7,2.2,2.9c0,0.2,0.1,0.3,0.2,0.5l0.9,0.9c0.1,0.1,0.2,0.3,0.1,0.5C3.2,4.9,3.1,5.1,2.9,5.1H1.7
		C1.3,5.1,1,5.4,1,5.7v1.6c0,0.4,0.3,0.7,0.7,0.7h1.2c0.2,0,0.4,0.1,0.4,0.3s0,0.4-0.1,0.5L2.4,9.6c-0.1,0.1-0.2,0.3-0.2,0.5
		c0,0.2,0.1,0.3,0.2,0.5l1.1,1.1c0.3,0.3,0.7,0.3,0.9,0l0.9-0.9c0.1-0.1,0.3-0.2,0.5-0.1c0.2,0.1,0.3,0.2,0.3,0.4v1.2
		c0,0.4,0.3,0.7,0.7,0.7h1.6c0.4,0,0.7-0.3,0.7-0.7v-1.2c0-0.2,0.1-0.4,0.3-0.4c0.2-0.1,0.4,0,0.5,0.1l0.9,0.9
		c0.3,0.3,0.7,0.3,0.9,0l1.1-1.1c0.1-0.1,0.2-0.3,0.2-0.5c0-0.2-0.1-0.3-0.2-0.5l-0.9-0.9c-0.1-0.1-0.2-0.3-0.1-0.5
		c0.1-0.2,0.2-0.3,0.4-0.3h1.2c0.4,0,0.7-0.3,0.7-0.7V5.7C14,5.4,13.7,5.1,13.3,5.1z M13.5,7.3c0,0.1-0.1,0.2-0.2,0.2h-1.2
		c-0.4,0-0.7,0.2-0.9,0.6c-0.1,0.4-0.1,0.8,0.2,1l0.9,0.9c0.1,0.1,0.1,0.2,0,0.3l-1.1,1.1c-0.1,0.1-0.2,0.1-0.3,0l-0.9-0.9
		c-0.3-0.3-0.7-0.4-1-0.2c-0.4,0.1-0.6,0.5-0.6,0.9v1.2c0,0.1-0.1,0.2-0.2,0.2H6.7c-0.1,0-0.2-0.1-0.2-0.2v-1.2
		c0-0.4-0.2-0.7-0.6-0.9c-0.1-0.1-0.2-0.1-0.4-0.1c-0.2,0-0.5,0.1-0.7,0.3l-0.9,0.9c-0.1,0.1-0.2,0.1-0.3,0l-1.1-1.1
		c-0.1-0.1-0.1-0.2,0-0.3l0.9-0.9c0.3-0.3,0.4-0.7,0.2-1C3.6,7.7,3.3,7.5,2.9,7.5H1.7c-0.1,0-0.2-0.1-0.2-0.2V5.7
		c0-0.1,0.1-0.2,0.2-0.2h1.2c0.4,0,0.7-0.2,0.9-0.6c0.1-0.4,0.1-0.8-0.2-1L2.7,3.1C2.6,3,2.6,2.9,2.7,2.8l1.1-1.1
		c0.1-0.1,0.2-0.1,0.3,0l0.9,0.9c0.3,0.3,0.7,0.4,1,0.2c0.4-0.1,0.6-0.5,0.6-0.9V0.7c0-0.1,0.1-0.2,0.2-0.2h1.6
		c0.1,0,0.2,0.1,0.2,0.2v1.2c0,0.4,0.2,0.7,0.6,0.9c0.4,0.1,0.8,0.1,1-0.2l0.9-0.9c0.1-0.1,0.2-0.1,0.3,0l1.1,1.1
		c0.1,0.1,0.1,0.2,0,0.3l-0.9,0.9c-0.3,0.3-0.4,0.7-0.2,1c0.1,0.4,0.5,0.6,0.9,0.6h1.2c0.1,0,0.2,0.1,0.2,0.2V7.3z"/>
	<path class="st0" d="M7.5,4.3c-1.2,0-2.2,1-2.2,2.2s1,2.2,2.2,2.2s2.2-1,2.2-2.2S8.7,4.3,7.5,4.3z M7.5,8.2c-0.9,0-1.7-0.8-1.7-1.7
		s0.8-1.7,1.7-1.7s1.7,0.8,1.7,1.7S8.4,8.2,7.5,8.2z"/>
</g>
</svg>
