<?xml version="1.0" encoding="utf-8"?>
<!-- Generator: Adobe Illustrator 19.0.0, SVG Export Plug-In . SVG Version: 6.00 Build 0)  -->
<svg version="1.1" id="Layer_1" xmlns="http://www.w3.org/2000/svg" xmlns:xlink="http://www.w3.org/1999/xlink" x="0px" y="0px"
	 viewBox="0 0 15 13" style="enable-background:new 0 0 15 13;" xml:space="preserve">
<style type="text/css">
	.st0{fill:#FFFFFF;}
</style>
<g id="XMLID_24_">
	<g id="XMLID_25_">
		<path id="XMLID_26_" class="st0" d="M14.7,3.1C14.9,3.1,15,3,15,2.8V2c0-0.2-0.1-0.3-0.3-0.3H0.3C0.1,1.7,0,1.9,0,2v0.8
			C0,2.9,0,3,0.1,3c0.1,0.1,0.1,0.1,0.2,0.1l0,0c0.3,0,0.6,0.3,0.6,0.6c0,0.3-0.3,0.6-0.6,0.6l0,0c-0.1,0-0.2,0-0.2,0.1
			C0,4.5,0,4.6,0,4.7v0.9c0,0.1,0,0.2,0.1,0.2c0.1,0.1,0.1,0.1,0.2,0.1l0,0c0.3,0,0.6,0.3,0.6,0.6c0,0.3-0.3,0.6-0.6,0.6l0,0
			c-0.1,0-0.2,0-0.2,0.1C0,7.3,0,7.3,0,7.4v0.9c0,0.1,0,0.2,0.1,0.2c0.1,0.1,0.1,0.1,0.2,0.1l0,0c0.3,0,0.6,0.3,0.6,0.6
			c0,0.3-0.3,0.6-0.6,0.6l0,0c-0.1,0-0.2,0-0.2,0.1C0,10,0,10.1,0,10.2V11c0,0.2,0.1,0.3,0.3,0.3h14.4c0.2,0,0.3-0.1,0.3-0.3v-0.8
			c0-0.2-0.1-0.3-0.3-0.3c-0.3,0-0.6-0.3-0.6-0.6c0-0.3,0.3-0.6,0.6-0.6c0.2,0,0.3-0.1,0.3-0.3V7.4c0-0.2-0.1-0.3-0.3-0.3
			c-0.3,0-0.6-0.3-0.6-0.6c0-0.3,0.3-0.6,0.6-0.6c0.2,0,0.3-0.1,0.3-0.3V4.7c0-0.2-0.1-0.3-0.3-0.3c-0.3,0-0.6-0.3-0.6-0.6
			C14.1,3.4,14.4,3.1,14.7,3.1z M14.4,4.9v0.4c-0.5,0.1-0.9,0.6-0.9,1.2s0.4,1,0.9,1.2v0.4c-0.5,0.1-0.9,0.6-0.9,1.2
			c0,0.6,0.4,1,0.9,1.2v0.2h-3.9v-0.5c0-0.2-0.1-0.3-0.3-0.3c-0.2,0-0.3,0.1-0.3,0.3v0.5H0.6v-0.2c0.5-0.1,0.9-0.6,0.9-1.2
			S1.1,8.2,0.6,8.1V7.7c0.5-0.1,0.9-0.6,0.9-1.2S1.1,5.4,0.6,5.3V4.9c0.5-0.1,0.9-0.6,0.9-1.2S1.1,2.7,0.6,2.6V2.3h9.3v0.5
			c0,0.2,0.1,0.3,0.3,0.3c0.2,0,0.3-0.1,0.3-0.3V2.3h3.9v0.2c-0.5,0.1-0.9,0.6-0.9,1.2S13.9,4.8,14.4,4.9z"/>
	</g>
</g>
<g id="XMLID_21_">
	<g id="XMLID_22_">
		<path id="XMLID_5_" class="st0" d="M10.2,4c-0.2,0-0.3,0.1-0.3,0.3v1.5c0,0.2,0.1,0.3,0.3,0.3c0.2,0,0.3-0.1,0.3-0.3V4.3
			C10.5,4.1,10.4,4,10.2,4z"/>
	</g>
</g>
<g id="XMLID_18_">
	<g id="XMLID_19_">
		<path id="XMLID_4_" class="st0" d="M10.2,6.9c-0.2,0-0.3,0.1-0.3,0.3v1.5c0,0.2,0.1,0.3,0.3,0.3c0.2,0,0.3-0.1,0.3-0.3V7.2
			C10.5,7.1,10.4,6.9,10.2,6.9z"/>
	</g>
</g>
<g id="XMLID_15_">
	<g id="XMLID_16_">
		<path id="XMLID_3_" class="st0" d="M8.2,3.6h-5C3,3.6,2.9,3.8,2.9,3.9c0,0.2,0.1,0.3,0.3,0.3h5c0.2,0,0.3-0.1,0.3-0.3
			C8.5,3.8,8.3,3.6,8.2,3.6z"/>
	</g>
</g>
<g id="XMLID_12_">
	<g id="XMLID_13_">
		<path id="XMLID_2_" class="st0" d="M5.8,5.1H3.2C3,5.1,2.9,5.3,2.9,5.4S3,5.7,3.2,5.7h2.6c0.2,0,0.3-0.1,0.3-0.3S5.9,5.1,5.8,5.1z
			"/>
	</g>
</g>
<g id="XMLID_9_">
	<g id="XMLID_10_">
		<path id="XMLID_1_" class="st0" d="M7.4,5.1H7c-0.2,0-0.3,0.1-0.3,0.3S6.8,5.7,7,5.7h0.5c0.2,0,0.3-0.1,0.3-0.3S7.6,5.1,7.4,5.1z"
			/>
	</g>
</g>
</svg>
