<?xml version="1.0" encoding="utf-8"?>
<!-- Generator: Adobe Illustrator 19.0.0, SVG Export Plug-In . SVG Version: 6.00 Build 0)  -->
<svg version="1.1" id="Layer_1" xmlns="http://www.w3.org/2000/svg" xmlns:xlink="http://www.w3.org/1999/xlink" x="0px" y="0px"
	 viewBox="200 164.9 30 30" style="enable-background:new 200 164.9 30 30;" xml:space="preserve">
<style type="text/css">
	.st0{fill:#FFFFFF;}
</style>
<g>
	<g>
		<g>
			<path class="st0" d="M200.8,181.5c0.4,0,0.6-0.4,0.6-0.7c0-0.3,0-0.6,0-0.9c0-0.4-0.3-0.7-0.7-0.7c-0.4,0-0.7,0.3-0.7,0.7
				c0,0.3,0,0.7,0,1C200.1,181.3,200.4,181.5,200.8,181.5C200.7,181.5,200.7,181.5,200.8,181.5z"/>
			<path class="st0" d="M215,164.9c-4.2,0-8.3,1.8-11.1,4.9v-4.3c0-0.4-0.3-0.7-0.7-0.7c-0.4,0-0.7,0.3-0.7,0.7v6.5
				c0,0.4,0.3,0.7,0.7,0.7h6.5c0.4,0,0.7-0.3,0.7-0.7c0-0.4-0.3-0.7-0.7-0.7h-5.5c2.6-3.3,6.6-5.2,10.7-5.2
				c7.6,0,13.7,6.1,13.7,13.7s-6.1,13.7-13.7,13.7c-6.1,0-11.5-4.1-13.2-9.9c-0.1-0.4-0.5-0.6-0.8-0.5c-0.4,0.1-0.6,0.5-0.5,0.8
				c1.9,6.4,7.8,10.9,14.4,10.9c8.3,0,15-6.7,15-15S223.3,164.9,215,164.9z"/>
			<path class="st0" d="M215,172.4c-0.4,0-0.7,0.3-0.7,0.7v6.2c0,0.2,0.1,0.3,0.2,0.5l7.1,7.1c0.1,0.1,0.3,0.2,0.5,0.2
				c0.2,0,0.3-0.1,0.5-0.2c0.3-0.3,0.3-0.7,0-0.9l-6.9-6.9V173C215.7,172.7,215.4,172.4,215,172.4z"/>
		</g>
	</g>
</g>
</svg>
