<?xml version="1.0" encoding="utf-8"?>
<!-- Generator: Adobe Illustrator 19.0.0, SVG Export Plug-In . SVG Version: 6.00 Build 0)  -->
<svg version="1.1" id="Layer_1" xmlns="http://www.w3.org/2000/svg" xmlns:xlink="http://www.w3.org/1999/xlink" x="0px" y="0px"
	 viewBox="-282 405.9 30 30" style="enable-background:new -282 405.9 30 30;" xml:space="preserve">
<g>
	<g>
		<g>
			<path d="M-281.2,422.6c0.4,0,0.6-0.4,0.6-0.7c0-0.3,0-0.6,0-0.9c0-0.4-0.3-0.7-0.7-0.7c-0.4,0-0.7,0.3-0.7,0.7c0,0.3,0,0.7,0,1
				C-281.9,422.4-281.6,422.6-281.2,422.6C-281.3,422.6-281.3,422.6-281.2,422.6z"/>
			<path d="M-267,406c-4.2,0-8.3,1.8-11.1,4.9v-4.3c0-0.4-0.3-0.7-0.7-0.7s-0.7,0.3-0.7,0.7v6.5c0,0.4,0.3,0.7,0.7,0.7h6.5
				c0.4,0,0.7-0.3,0.7-0.7s-0.3-0.7-0.7-0.7h-5.5c2.6-3.3,6.6-5.2,10.7-5.2c7.6,0,13.7,6.1,13.7,13.7c0,7.6-6.1,13.7-13.7,13.7
				c-6.1,0-11.5-4.1-13.2-9.9c-0.1-0.4-0.5-0.6-0.8-0.5c-0.4,0.1-0.6,0.5-0.5,0.8c1.9,6.4,7.8,10.9,14.4,10.9c8.3,0,15-6.7,15-15
				C-252.2,412.6-258.7,406-267,406z"/>
			<path d="M-267,413.5c-0.4,0-0.7,0.3-0.7,0.7v6.2c0,0.2,0.1,0.3,0.2,0.5l7.1,7.1c0.1,0.1,0.3,0.2,0.5,0.2c0.2,0,0.3-0.1,0.5-0.2
				c0.3-0.3,0.3-0.7,0-0.9l-6.9-6.9v-6.1C-266.3,413.8-266.6,413.5-267,413.5z"/>
		</g>
	</g>
</g>
</svg>
