<?xml version="1.0" encoding="utf-8"?>
<!-- Generator: Adobe Illustrator 19.0.0, SVG Export Plug-In . SVG Version: 6.00 Build 0)  -->
<svg version="1.1" id="Capa_1" xmlns="http://www.w3.org/2000/svg" xmlns:xlink="http://www.w3.org/1999/xlink" x="0px" y="0px"
	 viewBox="-282 405.9 30 30" style="enable-background:new -282 405.9 30 30;" xml:space="preserve">
<g>
	<g>
		<path d="M-260.1,432.7h-20.4v-24h20.4c0.4,0,0.7-0.3,0.7-0.7s-0.3-0.7-0.7-0.7h-21.2c-0.4,0-0.7,0.3-0.7,0.7v25.4
			c0,0.4,0.3,0.7,0.7,0.7h21.2c0.4,0,0.7-0.3,0.7-0.7C-259.4,433-259.7,432.7-260.1,432.7z"/>
		<path d="M-252.2,419.7l-4.5-4.5c-0.3-0.3-0.7-0.3-1,0c-0.3,0.3-0.3,0.7,0,1l3.2,3.2H-268c-0.4,0-0.7,0.3-0.7,0.7s0.3,0.7,0.7,0.7
			h13.6l-3.2,3.2c-0.3,0.3-0.3,0.7,0,1c0.1,0.1,0.3,0.2,0.5,0.2c0.2,0,0.4-0.1,0.5-0.2l4.5-4.5C-251.9,420.5-251.9,420-252.2,419.7z
			"/>
	</g>
</g>
</svg>
