<?xml version="1.0" encoding="utf-8"?>
<!-- Generator: Adobe Illustrator 19.0.0, SVG Export Plug-In . SVG Version: 6.00 Build 0)  -->
<svg version="1.1" id="Layer_1" xmlns="http://www.w3.org/2000/svg" xmlns:xlink="http://www.w3.org/1999/xlink" x="0px" y="0px"
	 viewBox="-282 400.4 30 40.5" style="enable-background:new -282 400.4 30 40.5;" xml:space="preserve">
<g>
	<g>
		<g>
			<path d="M-252.8,400.4h-28.4c-0.4,0-0.8,0.4-0.8,0.8V440c0,0.4,0.4,0.8,0.8,0.8h28.4c0.4,0,0.8-0.4,0.8-0.8v-38.8
				C-252,400.7-252.4,400.4-252.8,400.4z M-253.6,439.2h-26.8V402h26.8V439.2L-253.6,439.2z"/>
			<path d="M-275.2,412.8c0.2,0.2,0.4,0.2,0.6,0.2s0.4-0.1,0.6-0.2l4.2-4.2c0.3-0.3,0.3-0.8,0-1.1s-0.8-0.3-1.1,0l-3.6,3.6l-1.7-1.7
				c-0.3-0.3-0.8-0.3-1.1,0c-0.3,0.3-0.3,0.8,0,1.1L-275.2,412.8z"/>
			<path d="M-271,418.1l-3.6,3.6l-1.7-1.7c-0.3-0.3-0.8-0.3-1.1,0c-0.3,0.3-0.3,0.8,0,1.1l2.2,2.2c0.2,0.2,0.4,0.2,0.6,0.2
				s0.4-0.1,0.6-0.2l4.2-4.2c0.3-0.3,0.3-0.8,0-1.1C-270.2,417.8-270.7,417.8-271,418.1z"/>
			<path d="M-271,428.4l-3.6,3.6l-1.7-1.7c-0.3-0.3-0.8-0.3-1.1,0c-0.3,0.3-0.3,0.8,0,1.1l2.2,2.2c0.2,0.2,0.4,0.2,0.6,0.2
				s0.4-0.1,0.6-0.2l4.2-4.2c0.3-0.3,0.3-0.8,0-1.1C-270.2,428-270.7,428-271,428.4z"/>
			<path d="M-266.5,412.8h9.3c0.4,0,0.8-0.4,0.8-0.8s-0.4-0.8-0.8-0.8h-9.3c-0.4,0-0.8,0.4-0.8,0.8S-266.9,412.8-266.5,412.8z"/>
			<path d="M-266.5,409.7h5.4c0.4,0,0.8-0.4,0.8-0.8s-0.4-0.8-0.8-0.8h-5.4c-0.4,0-0.8,0.4-0.8,0.8S-266.9,409.7-266.5,409.7z"/>
			<path d="M-258.2,409.7h1.1c0.4,0,0.8-0.4,0.8-0.8s-0.4-0.8-0.8-0.8h-1.1c-0.4,0-0.8,0.4-0.8,0.8S-258.6,409.7-258.2,409.7z"/>
			<path d="M-266.5,423.3h9.3c0.4,0,0.8-0.4,0.8-0.8c0-0.4-0.4-0.8-0.8-0.8h-9.3c-0.4,0-0.8,0.4-0.8,0.8
				C-267.3,422.9-266.9,423.3-266.5,423.3z"/>
			<path d="M-266.5,418.7c-0.4,0-0.8,0.4-0.8,0.8s0.4,0.8,0.8,0.8h5.4c0.4,0,0.8-0.4,0.8-0.8s-0.4-0.8-0.8-0.8H-266.5z"/>
			<path d="M-257.1,418.7h-1.1c-0.4,0-0.8,0.4-0.8,0.8s0.4,0.8,0.8,0.8h1.1c0.4,0,0.8-0.4,0.8-0.8
				C-256.3,419.1-256.7,418.7-257.1,418.7z"/>
			<path d="M-266.5,433.6h9.3c0.4,0,0.8-0.4,0.8-0.8c0-0.4-0.4-0.8-0.8-0.8h-9.3c-0.4,0-0.8,0.4-0.8,0.8
				C-267.3,433.2-266.9,433.6-266.5,433.6z"/>
			<path d="M-266.5,429c-0.4,0-0.8,0.4-0.8,0.8c0,0.4,0.4,0.8,0.8,0.8h5.4c0.4,0,0.8-0.4,0.8-0.8c0-0.4-0.4-0.8-0.8-0.8H-266.5z"/>
			<path d="M-257.1,429h-1.1c-0.4,0-0.8,0.4-0.8,0.8c0,0.4,0.4,0.8,0.8,0.8h1.1c0.4,0,0.8-0.4,0.8-0.8
				C-256.3,429.4-256.7,429-257.1,429z"/>
		</g>
	</g>
</g>
</svg>
