<?xml version="1.0" encoding="utf-8"?>
<!-- Generator: Adobe Illustrator 19.0.0, SVG Export Plug-In . SVG Version: 6.00 Build 0)  -->
<svg version="1.1" id="Capa_1" xmlns="http://www.w3.org/2000/svg" xmlns:xlink="http://www.w3.org/1999/xlink" x="0px" y="0px"
	 viewBox="-282 400.4 30 41.5" style="enable-background:new -282 400.4 30 41.5;" xml:space="preserve">
<g>
	<path d="M-254.1,400.3h-20.1l0,0l0,0h-0.1l0,0h-0.1l0,0h-0.1l0,0h-0.1l0,0c0,0,0,0-0.1,0.1l0,0l-7.2,7.2l0,0c0,0,0,0-0.1,0.1l0,0
		c0,0,0,0,0,0.1l0,0v0.1l0,0v0.1l0,0v0.1l0,0l0,0v31.5c0,1.2,0.9,2.1,2.1,2.1h25.8c1.2,0,2.1-0.9,2.1-2.1v-37.3
		C-252,401.2-252.9,400.3-254.1,400.3z M-274.8,402.6v4.1c0,0.4-0.3,0.8-0.8,0.8h-4.1L-274.8,402.6z M-253.3,439.6
		c0,0.4-0.3,0.8-0.8,0.8h-25.8c-0.4,0-0.8-0.3-0.8-0.8v-30.9h5.1c1.2,0,2.1-0.9,2.1-2.1v-5.1h19.4c0.4,0,0.8,0.3,0.8,0.8V439.6z"/>
	<path d="M-275.6,419.5h17.2c0.4,0,0.7-0.3,0.7-0.7s-0.3-0.7-0.7-0.7h-17.2c-0.4,0-0.7,0.3-0.7,0.7S-276,419.5-275.6,419.5z"/>
	<path d="M-275.6,423.1h17.2c0.4,0,0.7-0.3,0.7-0.7s-0.3-0.7-0.7-0.7h-17.2c-0.4,0-0.7,0.3-0.7,0.7S-276,423.1-275.6,423.1z"/>
	<path d="M-275.6,426.7h8.6c0.4,0,0.7-0.3,0.7-0.7s-0.3-0.7-0.7-0.7h-8.6c-0.4,0-0.7,0.3-0.7,0.7S-276,426.7-275.6,426.7z"/>
	<path d="M-266.3,429.6c0-0.4-0.3-0.7-0.7-0.7h-8.6c-0.4,0-0.7,0.3-0.7,0.7s0.3,0.7,0.7,0.7h8.6C-266.6,430.3-266.3,430-266.3,429.6
		z"/>
	<path d="M-263.5,411.9c0-0.4-0.3-0.7-0.7-0.7s-0.7,0.3-0.7,0.7c0,1.3,1.2,2.4,2.9,2.6v0.1c0,0.4,0.3,0.7,0.7,0.7s0.7-0.3,0.7-0.7
		v-0.1c1.7-0.2,2.9-1.3,2.9-2.6c0-1.3-1.2-2.4-2.9-2.6v-2.6c0.8,0.2,1.5,0.6,1.5,1.2c0,0.4,0.3,0.7,0.7,0.7s0.7-0.3,0.7-0.7
		c0-1.3-1.2-2.4-2.9-2.6v-0.1c0-0.4-0.3-0.7-0.7-0.7s-0.7,0.3-0.7,0.7v0.1c-1.7,0.2-2.9,1.3-2.9,2.6c0,1.3,1.2,2.4,2.9,2.6v2.6
		C-262.7,412.9-263.5,412.5-263.5,411.9z M-259.1,411.9c0,0.6-0.7,1.1-1.5,1.2v-2.5C-259.8,410.8-259.1,411.3-259.1,411.9z
		 M-263.5,407.9c0-0.6,0.7-1.1,1.5-1.2v2.5C-262.7,409-263.5,408.5-263.5,407.9z"/>
	<path d="M-257.1,429c-0.3-0.2-0.7-0.1-0.9,0.3l-1.4,2.4l-0.2-0.1c-0.2-0.1-0.4-0.2-0.6-0.1c-0.2,0-0.4,0.2-0.5,0.4l-0.7,1.4
		l-0.2-0.3c-0.3-0.4-0.8-0.5-1.3-0.5c-0.5,0.1-0.9,0.4-1,0.9l-0.8,2.2l-1.8-2.3c-0.1-0.1-0.3-0.2-0.5-0.3c-0.2,0-0.4,0-0.5,0.2
		l-1.9,1.7c-0.3,0.2-0.3,0.7-0.1,0.9c0.2,0.3,0.7,0.3,0.9,0.1l1.4-1.2l1.8,2.2c0.2,0.2,0.5,0.4,0.8,0.4c0.1,0,0.1,0,0.2,0
		c0.4-0.1,0.7-0.3,0.8-0.7l1-2.8l0,0l0,0l0.9,1c0.1,0.2,0.4,0.3,0.6,0.2c0.2,0,0.4-0.2,0.5-0.4l0.8-1.6l0.2,0.1
		c0.2,0.1,0.4,0.2,0.5,0.1c0.2,0,0.4-0.2,0.5-0.3l1.8-3.1C-256.6,429.6-256.8,429.1-257.1,429z"/>
</g>
</svg>
