<?xml version="1.0" encoding="utf-8"?>
<!-- Generator: Adobe Illustrator 19.0.0, SVG Export Plug-In . SVG Version: 6.00 Build 0)  -->
<svg version="1.1" id="Layer_1" xmlns="http://www.w3.org/2000/svg" xmlns:xlink="http://www.w3.org/1999/xlink" x="0px" y="0px"
	 viewBox="-282 401.3 30 39.6" style="enable-background:new -282 401.3 30 39.6;" xml:space="preserve">
<g>
	<g>
		<path d="M-252.2,409l-7.5-7.5c-0.1-0.1-0.3-0.2-0.5-0.2H-280c-1.1,0-2,0.9-2,2v35.6c0,1.1,0.9,2,2,2h26c1.1,0,2-0.9,2-2v-29.4
			C-252,409.3-252.1,409.1-252.2,409z M-259.5,403.5l5.3,5.3h-4.6c-0.4,0-0.7-0.3-0.7-0.7C-259.5,408.1-259.5,403.5-259.5,403.5z
			 M-254,439.6h-26c-0.4,0-0.7-0.3-0.7-0.7v-35.6c0-0.4,0.3-0.7,0.7-0.7h19.2v5.5c0,1.1,0.9,2,2,2h5.5v28.8
			C-253.3,439.3-253.6,439.6-254,439.6z"/>
		<path d="M-277.3,406.7h4.8c0.4,0,0.6-0.3,0.6-0.6c0-0.3-0.3-0.6-0.6-0.6h-4.8c-0.4,0-0.6,0.3-0.6,0.6
			C-277.9,406.4-277.6,406.7-277.3,406.7z"/>
		<path d="M-277.3,410.1h7.5c0.4,0,0.6-0.3,0.6-0.6c0-0.4-0.3-0.6-0.6-0.6h-7.5c-0.4,0-0.6,0.3-0.6,0.6
			C-277.9,409.8-277.6,410.1-277.3,410.1z"/>
		<path d="M-271.7,414.9c0,0.4,0.3,0.6,0.6,0.6h8.2c0.4,0,0.6-0.3,0.6-0.6c0-0.3-0.3-0.6-0.6-0.6h-8.2
			C-271.5,414.3-271.7,414.6-271.7,414.9z"/>
		<path d="M-256.7,417.7h-20.5c-0.4,0-0.6,0.3-0.6,0.6c0,0.3,0.3,0.6,0.6,0.6h20.5c0.4,0,0.6-0.3,0.6-0.6
			C-256.1,418-256.4,417.7-256.7,417.7z"/>
		<path d="M-264.9,430h-4.8c-0.4,0-0.6,0.3-0.6,0.6c0,0.3,0.3,0.6,0.6,0.6h4.8c0.4,0,0.6-0.3,0.6-0.6
			C-264.3,430.3-264.6,430-264.9,430z"/>
		<path d="M-264.9,433.4h-4.8c-0.4,0-0.6,0.3-0.6,0.6c0,0.4,0.3,0.6,0.6,0.6h4.8c0.4,0,0.6-0.3,0.6-0.6
			C-264.3,433.7-264.6,433.4-264.9,433.4z"/>
		<path d="M-256.7,421.1h-20.5c-0.4,0-0.6,0.3-0.6,0.6c0,0.4,0.3,0.6,0.6,0.6h20.5c0.4,0,0.6-0.3,0.6-0.6
			C-256.1,421.4-256.4,421.1-256.7,421.1z"/>
		<path d="M-256.7,424.6h-20.5c-0.4,0-0.6,0.3-0.6,0.6c0,0.3,0.3,0.6,0.6,0.6h20.5c0.4,0,0.6-0.3,0.6-0.6
			C-256.1,424.9-256.4,424.6-256.7,424.6z"/>
		<path d="M-259.5,429.3c-1.9,0-3.4,1.5-3.4,3.4s1.5,3.4,3.4,3.4s3.4-1.5,3.4-3.4C-256.1,430.9-257.6,429.3-259.5,429.3z
			 M-259.5,434.8c-1.2,0-2.1-0.9-2.1-2.1c0-1.2,0.9-2.1,2.1-2.1s2.1,0.9,2.1,2.1S-258.3,434.8-259.5,434.8z"/>
		<path d="M-259.5,431.6c-0.6,0-1.2,0.5-1.2,1.2c0,0.6,0.5,1.2,1.2,1.2c0.6,0,1.2-0.5,1.2-1.2C-258.3,432.1-258.8,431.6-259.5,431.6
			z"/>
	</g>
</g>
</svg>
