<?xml version="1.0" encoding="utf-8"?>
<!-- Generator: Adobe Illustrator 19.0.0, SVG Export Plug-In . SVG Version: 6.00 Build 0)  -->
<svg version="1.1" id="Capa_1" xmlns="http://www.w3.org/2000/svg" xmlns:xlink="http://www.w3.org/1999/xlink" x="0px" y="0px"
	 viewBox="200 159.2 30 41.5" style="enable-background:new 200 159.2 30 41.5;" xml:space="preserve">
<style type="text/css">
	.st0{fill:#FFFFFF;}
</style>
<g>
	<path class="st0" d="M227.9,159.2h-20.1c0,0,0,0,0,0c0,0,0,0,0,0c0,0-0.1,0-0.1,0c0,0,0,0,0,0c0,0-0.1,0-0.1,0c0,0,0,0,0,0
		c0,0-0.1,0-0.1,0c0,0,0,0,0,0c0,0-0.1,0-0.1,0c0,0,0,0,0,0c0,0,0,0-0.1,0.1c0,0,0,0,0,0l-7.2,7.2c0,0,0,0,0,0c0,0,0,0-0.1,0.1
		c0,0,0,0,0,0c0,0,0,0,0,0.1c0,0,0,0,0,0c0,0,0,0.1,0,0.1c0,0,0,0,0,0c0,0,0,0.1,0,0.1c0,0,0,0,0,0c0,0,0,0.1,0,0.1c0,0,0,0,0,0
		c0,0,0,0,0,0v31.5c0,1.2,0.9,2.1,2.1,2.1h25.8c1.2,0,2.1-0.9,2.1-2.1v-37.3C230,160.1,229.1,159.2,227.9,159.2z M207.2,161.5v4.1
		c0,0.4-0.3,0.8-0.8,0.8h-4.1L207.2,161.5z M228.7,198.5c0,0.4-0.3,0.8-0.8,0.8h-25.8c-0.4,0-0.8-0.3-0.8-0.8v-30.9h5.1
		c1.2,0,2.1-0.9,2.1-2.1v-5.1h19.4c0.4,0,0.8,0.3,0.8,0.8V198.5z"/>
	<path class="st0" d="M206.4,178.4h17.2c0.4,0,0.7-0.3,0.7-0.7s-0.3-0.7-0.7-0.7h-17.2c-0.4,0-0.7,0.3-0.7,0.7
		S206,178.4,206.4,178.4z"/>
	<path class="st0" d="M206.4,182h17.2c0.4,0,0.7-0.3,0.7-0.7s-0.3-0.7-0.7-0.7h-17.2c-0.4,0-0.7,0.3-0.7,0.7S206,182,206.4,182z"/>
	<path class="st0" d="M206.4,185.6h8.6c0.4,0,0.7-0.3,0.7-0.7c0-0.4-0.3-0.7-0.7-0.7h-8.6c-0.4,0-0.7,0.3-0.7,0.7
		C205.7,185.3,206,185.6,206.4,185.6z"/>
	<path class="st0" d="M215.7,188.5c0-0.4-0.3-0.7-0.7-0.7h-8.6c-0.4,0-0.7,0.3-0.7,0.7s0.3,0.7,0.7,0.7h8.6
		C215.4,189.2,215.7,188.9,215.7,188.5z"/>
	<path class="st0" d="M218.5,170.8c0-0.4-0.3-0.7-0.7-0.7s-0.7,0.3-0.7,0.7c0,1.3,1.2,2.4,2.9,2.6v0.1c0,0.4,0.3,0.7,0.7,0.7
		s0.7-0.3,0.7-0.7v-0.1c1.7-0.2,2.9-1.3,2.9-2.6s-1.2-2.4-2.9-2.6v-2.6c0.8,0.2,1.5,0.6,1.5,1.2c0,0.4,0.3,0.7,0.7,0.7
		s0.7-0.3,0.7-0.7c0-1.3-1.2-2.4-2.9-2.6v-0.1c0-0.4-0.3-0.7-0.7-0.7s-0.7,0.3-0.7,0.7v0.1c-1.7,0.2-2.9,1.3-2.9,2.6
		c0,1.3,1.2,2.4,2.9,2.6v2.6C219.3,171.8,218.5,171.4,218.5,170.8z M222.9,170.8c0,0.6-0.7,1.1-1.5,1.2v-2.5
		C222.2,169.7,222.9,170.2,222.9,170.8z M218.5,166.8c0-0.6,0.7-1.1,1.5-1.2v2.5C219.3,167.9,218.5,167.4,218.5,166.8z"/>
	<path class="st0" d="M224.9,187.9c-0.3-0.2-0.7-0.1-0.9,0.3l-1.4,2.4l-0.2-0.1c-0.2-0.1-0.4-0.2-0.6-0.1c-0.2,0-0.4,0.2-0.5,0.4
		l-0.7,1.4l-0.2-0.3c-0.3-0.4-0.8-0.5-1.3-0.5c-0.5,0.1-0.9,0.4-1,0.9l-0.8,2.2l-1.8-2.3c-0.1-0.1-0.3-0.2-0.5-0.3
		c-0.2,0-0.4,0-0.5,0.2l-1.9,1.7c-0.3,0.2-0.3,0.7-0.1,0.9c0.2,0.3,0.7,0.3,0.9,0.1l1.4-1.2l1.8,2.2c0.2,0.2,0.5,0.4,0.8,0.4
		c0.1,0,0.1,0,0.2,0c0.4-0.1,0.7-0.3,0.8-0.7l1-2.8c0,0,0,0,0,0c0,0,0,0,0,0l0.9,1c0.1,0.2,0.4,0.3,0.6,0.2c0.2,0,0.4-0.2,0.5-0.4
		l0.8-1.6l0.2,0.1c0.2,0.1,0.4,0.2,0.5,0.1c0.2,0,0.4-0.2,0.5-0.3l1.8-3.1C225.4,188.5,225.2,188,224.9,187.9z"/>
</g>
</svg>
