<?xml version="1.0" encoding="utf-8"?>
<!-- Generator: Adobe Illustrator 19.0.0, SVG Export Plug-In . SVG Version: 6.00 Build 0)  -->
<svg version="1.1" id="Layer_1" xmlns="http://www.w3.org/2000/svg" xmlns:xlink="http://www.w3.org/1999/xlink" x="0px" y="0px"
	 viewBox="200 160.1 30 39.6" style="enable-background:new 200 160.1 30 39.6;" xml:space="preserve">
<style type="text/css">
	.st0{fill:#FFFFFF;}
</style>
<g>
	<g>
		<path class="st0" d="M229.8,167.8l-7.5-7.5c-0.1-0.1-0.3-0.2-0.5-0.2H202c-1.1,0-2,0.9-2,2v35.6c0,1.1,0.9,2,2,2h26
			c1.1,0,2-0.9,2-2v-29.4C230,168.1,229.9,167.9,229.8,167.8z M222.5,162.3l5.3,5.3h-4.6c-0.4,0-0.7-0.3-0.7-0.7
			C222.5,166.9,222.5,162.3,222.5,162.3z M228,198.4h-26c-0.4,0-0.7-0.3-0.7-0.7v-35.6c0-0.4,0.3-0.7,0.7-0.7h19.2v5.5
			c0,1.1,0.9,2,2,2h5.5v28.8C228.7,198.1,228.4,198.4,228,198.4z"/>
		<path class="st0" d="M204.7,165.5h4.8c0.4,0,0.6-0.3,0.6-0.6s-0.3-0.6-0.6-0.6h-4.8c-0.4,0-0.6,0.3-0.6,0.6
			S204.4,165.5,204.7,165.5z"/>
		<path class="st0" d="M204.7,168.9h7.5c0.4,0,0.6-0.3,0.6-0.6c0-0.4-0.3-0.6-0.6-0.6h-7.5c-0.4,0-0.6,0.3-0.6,0.6
			C204.1,168.6,204.4,168.9,204.7,168.9z"/>
		<path class="st0" d="M210.3,173.7c0,0.4,0.3,0.6,0.6,0.6h8.2c0.4,0,0.6-0.3,0.6-0.6s-0.3-0.6-0.6-0.6h-8.2
			C210.5,173.1,210.3,173.4,210.3,173.7z"/>
		<path class="st0" d="M225.3,176.5h-20.5c-0.4,0-0.6,0.3-0.6,0.6s0.3,0.6,0.6,0.6h20.5c0.4,0,0.6-0.3,0.6-0.6
			S225.6,176.5,225.3,176.5z"/>
		<path class="st0" d="M217.1,188.8h-4.8c-0.4,0-0.6,0.3-0.6,0.6s0.3,0.6,0.6,0.6h4.8c0.4,0,0.6-0.3,0.6-0.6
			S217.4,188.8,217.1,188.8z"/>
		<path class="st0" d="M217.1,192.2h-4.8c-0.4,0-0.6,0.3-0.6,0.6c0,0.4,0.3,0.6,0.6,0.6h4.8c0.4,0,0.6-0.3,0.6-0.6
			C217.7,192.5,217.4,192.2,217.1,192.2z"/>
		<path class="st0" d="M225.3,179.9h-20.5c-0.4,0-0.6,0.3-0.6,0.6c0,0.4,0.3,0.6,0.6,0.6h20.5c0.4,0,0.6-0.3,0.6-0.6
			C225.9,180.2,225.6,179.9,225.3,179.9z"/>
		<path class="st0" d="M225.3,183.4h-20.5c-0.4,0-0.6,0.3-0.6,0.6s0.3,0.6,0.6,0.6h20.5c0.4,0,0.6-0.3,0.6-0.6
			S225.6,183.4,225.3,183.4z"/>
		<path class="st0" d="M222.5,188.1c-1.9,0-3.4,1.5-3.4,3.4c0,1.9,1.5,3.4,3.4,3.4c1.9,0,3.4-1.5,3.4-3.4
			C225.9,189.7,224.4,188.1,222.5,188.1z M222.5,193.6c-1.2,0-2.1-0.9-2.1-2.1c0-1.2,0.9-2.1,2.1-2.1s2.1,0.9,2.1,2.1
			C224.6,192.7,223.7,193.6,222.5,193.6z"/>
		<path class="st0" d="M222.5,190.4c-0.6,0-1.2,0.5-1.2,1.2c0,0.6,0.5,1.2,1.2,1.2c0.6,0,1.2-0.5,1.2-1.2
			C223.7,190.9,223.2,190.4,222.5,190.4z"/>
	</g>
</g>
</svg>
