<?xml version="1.0" encoding="utf-8"?>
<!-- Generator: Adobe Illustrator 19.0.0, SVG Export Plug-In . SVG Version: 6.00 Build 0)  -->
<svg version="1.1" id="Layer_1" xmlns="http://www.w3.org/2000/svg" xmlns:xlink="http://www.w3.org/1999/xlink" x="0px" y="0px"
	 viewBox="317 159.7 30 40.5" style="enable-background:new 317 159.7 30 40.5;" xml:space="preserve">
<style type="text/css">
	.st0{fill:#FFFFFF;}
</style>
<g>
	<g>
		<g>
			<path class="st0" d="M346.2,159.7h-28.4c-0.4,0-0.8,0.4-0.8,0.8v38.8c0,0.4,0.4,0.8,0.8,0.8h28.4c0.4,0,0.8-0.4,0.8-0.8v-38.8
				C347,160,346.6,159.7,346.2,159.7z M345.4,198.5h-26.8v-37.2h26.8V198.5L345.4,198.5z"/>
			<path class="st0" d="M323.8,172.1c0.2,0.2,0.4,0.2,0.6,0.2c0.2,0,0.4-0.1,0.6-0.2l4.2-4.2c0.3-0.3,0.3-0.8,0-1.1
				c-0.3-0.3-0.8-0.3-1.1,0l-3.6,3.6l-1.7-1.7c-0.3-0.3-0.8-0.3-1.1,0c-0.3,0.3-0.3,0.8,0,1.1L323.8,172.1z"/>
			<path class="st0" d="M328,177.4l-3.6,3.6l-1.7-1.7c-0.3-0.3-0.8-0.3-1.1,0c-0.3,0.3-0.3,0.8,0,1.1l2.2,2.2
				c0.2,0.2,0.4,0.2,0.6,0.2s0.4-0.1,0.6-0.2l4.2-4.2c0.3-0.3,0.3-0.8,0-1.1C328.8,177.1,328.3,177.1,328,177.4z"/>
			<path class="st0" d="M328,187.7l-3.6,3.6l-1.7-1.7c-0.3-0.3-0.8-0.3-1.1,0c-0.3,0.3-0.3,0.8,0,1.1l2.2,2.2
				c0.2,0.2,0.4,0.2,0.6,0.2s0.4-0.1,0.6-0.2l4.2-4.2c0.3-0.3,0.3-0.8,0-1.1C328.8,187.3,328.3,187.3,328,187.7z"/>
			<path class="st0" d="M332.5,172.1h9.3c0.4,0,0.8-0.4,0.8-0.8s-0.4-0.8-0.8-0.8h-9.3c-0.4,0-0.8,0.4-0.8,0.8
				S332.1,172.1,332.5,172.1z"/>
			<path class="st0" d="M332.5,169h5.4c0.4,0,0.8-0.4,0.8-0.8s-0.4-0.8-0.8-0.8h-5.4c-0.4,0-0.8,0.4-0.8,0.8S332.1,169,332.5,169z"
				/>
			<path class="st0" d="M340.8,169h1.1c0.4,0,0.8-0.4,0.8-0.8s-0.4-0.8-0.8-0.8h-1.1c-0.4,0-0.8,0.4-0.8,0.8S340.4,169,340.8,169z"
				/>
			<path class="st0" d="M332.5,182.6h9.3c0.4,0,0.8-0.4,0.8-0.8s-0.4-0.8-0.8-0.8h-9.3c-0.4,0-0.8,0.4-0.8,0.8
				S332.1,182.6,332.5,182.6z"/>
			<path class="st0" d="M332.5,178c-0.4,0-0.8,0.4-0.8,0.8c0,0.4,0.4,0.8,0.8,0.8h5.4c0.4,0,0.8-0.4,0.8-0.8c0-0.4-0.4-0.8-0.8-0.8
				H332.5z"/>
			<path class="st0" d="M341.9,178h-1.1c-0.4,0-0.8,0.4-0.8,0.8c0,0.4,0.4,0.8,0.8,0.8h1.1c0.4,0,0.8-0.4,0.8-0.8
				C342.7,178.4,342.3,178,341.9,178z"/>
			<path class="st0" d="M332.5,192.9h9.3c0.4,0,0.8-0.4,0.8-0.8s-0.4-0.8-0.8-0.8h-9.3c-0.4,0-0.8,0.4-0.8,0.8
				S332.1,192.9,332.5,192.9z"/>
			<path class="st0" d="M332.5,188.3c-0.4,0-0.8,0.4-0.8,0.8s0.4,0.8,0.8,0.8h5.4c0.4,0,0.8-0.4,0.8-0.8s-0.4-0.8-0.8-0.8H332.5z"/>
			<path class="st0" d="M341.9,188.3h-1.1c-0.4,0-0.8,0.4-0.8,0.8s0.4,0.8,0.8,0.8h1.1c0.4,0,0.8-0.4,0.8-0.8
				S342.3,188.3,341.9,188.3z"/>
		</g>
	</g>
</g>
</svg>
